<?xml version="1.0" encoding="UTF-8"?>
<!DOCTYPE svg PUBLIC "-//W3C//DTD SVG 1.1//EN" "http://www.w3.org/Graphics/SVG/1.1/DTD/svg11.dtd">
<svg version="1.2" xmlns="http://www.w3.org/2000/svg" xmlns:xlink="http://www.w3.org/1999/xlink" x="0" y="0" width="1222" height="550" viewBox="0 0 1222 550">
<style type="text/css"><![CDATA[
text { font:12px Dialog; }
]]></style>
<rect x="-485" y="-485" width="2192" height="1520" style="fill:rgb(255,255,255);stroke:none" />
<clipPath id="clip1"><path d="M15,15 L1207,15 L1207,535 L15,535 Z M26,249 C21.5820313,249 18,252.5820313 18,257 L18,310 C18,314.4179688 21.5820313,318 26,318 L196,318 C200.4179688,318 204,314.4179688 204,310 L204,257 C204,252.5820313 200.4179688,249 196,249 Z M26,249 Z M26,249" /></clipPath>
<path d="M127.5195313,249 L127.5195313,91 C127.5195313,86.5839844 131.1035156,83 135.5195313,83 L207,83" style="fill:none;stroke:rgb(85,142,213)" clip-path="url(#clip1)" />
<clipPath id="clip2"><path d="M15,15 L1207,15 L1207,535 L15,535 Z M26,249 C21.5820313,249 18,252.5820313 18,257 L18,310 C18,314.4179688 21.5820313,318 26,318 L196,318 C200.4179688,318 204,314.4179688 204,310 L204,257 C204,252.5820313 200.4179688,249 196,249 Z M26,249 Z M26,249" /></clipPath>
<path d="M204,255.234375 L204,245 C204,240.5839844 207.5839844,237 212,237 L264,237" style="fill:none;stroke:rgb(85,142,213)" clip-path="url(#clip2)" />
<clipPath id="clip3"><path d="M15,15 L1207,15 L1207,535 L15,535 Z M26,249 C21.5820313,249 18,252.5820313 18,257 L18,310 C18,314.4179688 21.5820313,318 26,318 L196,318 C200.4179688,318 204,314.4179688 204,310 L204,257 C204,252.5820313 200.4179688,249 196,249 Z M26,249 Z M26,249" /></clipPath>
<path d="M156.5839844,318 L156.5839844,386 C156.5839844,390.4160156 160.1679688,394 164.5839844,394 L257,394" style="fill:none;stroke:rgb(85,142,213)" clip-path="url(#clip3)" />
<clipPath id="clip4"><path d="M15,15 L1207,15 L1207,535 L15,535 Z M26,249 C21.5820313,249 18,252.5820313 18,257 L18,310 C18,314.4179688 21.5820313,318 26,318 L196,318 C200.4179688,318 204,314.4179688 204,310 L204,257 C204,252.5820313 200.4179688,249 196,249 Z M26,249 Z M26,249" /></clipPath>
<path d="M125.34375,318 L125.34375,504 C125.34375,508.4160156 128.9277344,512 133.34375,512 L206,512" style="fill:none;stroke:rgb(85,142,213)" clip-path="url(#clip4)" />
<clipPath id="clip5"><path d="M14,245 L209,245 L209,323 L14,323 L14,245 Z" /></clipPath>
<path d="M26,249 C21.5820313,249 18,252.5820313 18,257 L18,310 C18,314.4179688 21.5820313,318 26,318 L196,318 C200.4179688,318 204,314.4179688 204,310 L204,257 C204,252.5820313 200.4179688,249 196,249 Z M26,249" style="fill:rgb(220,230,242);stroke:none" clip-path="url(#clip5)" />
<clipPath id="clip6"><path d="M14,245 L209,245 L209,323 L14,323 L14,245 Z" /></clipPath>
<path d="M26,249 C21.5820313,249 18,252.5820313 18,257 L18,310 C18,314.4179688 21.5820313,318 26,318 L196,318 C200.4179688,318 204,314.4179688 204,310 L204,257 C204,252.5820313 200.4179688,249 196,249 Z M26,249" style="fill:none;stroke:rgb(85,142,213);stroke-width:5" clip-path="url(#clip6)" />
<text x="53" y="288" style="font:18px Open Sans">keystores</text>
<clipPath id="clip7"><path d="M206,15 L939,15 L939,123 L206,123 Z M212,62 C209.2382813,62 207,64.2382813 207,67 L207,99 C207,101.7617188 209.2382813,104 212,104 L283,104 C285.7617188,104 288,101.7617188 288,99 L288,67 C288,64.2382813 285.7617188,62 283,62 Z M212,62 Z M212,62" /></clipPath>
<path d="M301,83 C303.2226563,61 306.5546875,50 311,50" style="fill:none;stroke:rgb(85,142,213)" clip-path="url(#clip7)" />
<clipPath id="clip8"><path d="M206,15 L939,15 L939,123 L206,123 Z M212,62 C209.2382813,62 207,64.2382813 207,67 L207,99 C207,101.7617188 209.2382813,104 212,104 L283,104 C285.7617188,104 288,101.7617188 288,99 L288,67 C288,64.2382813 285.7617188,62 283,62 Z M212,62 Z M212,62" /></clipPath>
<path d="M301,83 C303.2226563,83 306.5546875,83 311,83" style="fill:none;stroke:rgb(85,142,213)" clip-path="url(#clip8)" />
<clipPath id="clip9"><path d="M206,15 L939,15 L939,123 L206,123 Z M212,62 C209.2382813,62 207,64.2382813 207,67 L207,99 C207,101.7617188 209.2382813,104 212,104 L283,104 C285.7617188,104 288,101.7617188 288,99 L288,67 C288,64.2382813 285.7617188,62 283,62 Z M212,62 Z M212,62" /></clipPath>
<path d="M301,83 C303.2226563,105 306.5546875,116 311,116" style="fill:none;stroke:rgb(85,142,213)" clip-path="url(#clip9)" />
<clipPath id="clip10"><path d="M205,14 L940,14 L940,124 L205,124 L205,14 Z" /></clipPath>
<path d="M288,83 L301,83" style="fill:none;stroke:rgb(85,142,213)" clip-path="url(#clip10)" />
<clipPath id="clip11"><path d="M205,60 L291,60 L291,107 L205,107 L205,60 Z" /></clipPath>
<path d="M212,62 C209.2382813,62 207,64.2382813 207,67 L207,99 C207,101.7617188 209.2382813,104 212,104 L283,104 C285.7617188,104 288,101.7617188 288,99 L288,67 C288,64.2382813 285.7617188,62 283,62 Z M212,62" style="fill:rgb(220,230,242);stroke:none" clip-path="url(#clip11)" />
<clipPath id="clip12"><path d="M205,60 L291,60 L291,107 L205,107 L205,60 Z" /></clipPath>
<path d="M212,62 C209.2382813,62 207,64.2382813 207,67 L207,99 C207,101.7617188 209.2382813,104 212,104 L283,104 C285.7617188,104 288,101.7617188 288,99 L288,67 C288,64.2382813 285.7617188,62 283,62 Z M212,62" style="fill:none;stroke:rgb(85,142,213);stroke-width:2" clip-path="url(#clip12)" />
<text x="221" y="86" style="font:13px Open Sans">server</text>
<clipPath id="clip13"><path d="M309,20 L671,20 L671,52 L309,52 Z M311,22 L311,49 L413,49 L413,22 Z M311,22 Z M311,22" /></clipPath>
<path d="M426,50 C428.4453125,50 432.1113281,50 437,50" style="fill:none;stroke:rgb(85,142,213)" clip-path="url(#clip13)" />
<clipPath id="clip14"><path d="M308,19 L672,19 L672,53 L308,53 L308,19 Z" /></clipPath>
<path d="M413,50 L426,50" style="fill:none;stroke:rgb(85,142,213)" clip-path="url(#clip14)" />
<clipPath id="clip15"><path d="M308,19 L417,19 L417,53 L308,53 L308,19 Z" /></clipPath>
<path d="M311,50 L413,50 Z M311,50" style="fill:none;stroke:rgb(85,142,213);stroke-width:3" clip-path="url(#clip15)" />
<text x="322" y="38" style="font:10px Open Sans">&lt;hostname&gt;</text>
<clipPath id="clip16"><path d="M434,19 L672,19 L672,53 L434,53 L434,19 Z" /></clipPath>
<path d="M437,50 L668,50 Z M437,50" style="fill:none;stroke:rgb(85,142,213);stroke-width:3" clip-path="url(#clip16)" />
<text x="448" y="38" style="font:10px Open Sans">keystore_&lt;composant_vitam&gt;.jks</text>
<clipPath id="clip17"><path d="M308,52 L349,52 L349,86 L308,86 L308,52 Z" /></clipPath>
<path d="M311,83 L345,83 Z M311,83" style="fill:none;stroke:rgb(85,142,213);stroke-width:3" clip-path="url(#clip17)" />
<text x="322" y="71" style="font:10px Open Sans">...</text>
<clipPath id="clip18"><path d="M308,85 L467,85 L467,119 L308,119 L308,85 Z" /></clipPath>
<path d="M311,116 L463,116 Z M311,116" style="fill:none;stroke:rgb(85,142,213);stroke-width:3" clip-path="url(#clip18)" />
<text x="322" y="104" style="font:10px Open Sans">truststore_server.jks</text>
<clipPath id="clip19"><path d="M670,14 L707,14 L707,91 L670,91 L670,14 Z" /></clipPath>
<path d="M676,20 L688.5,20 L688.5,85 L676,85 M688.5,52 L701,52" style="fill:none;stroke:rgb(195,214,155);stroke-width:5" clip-path="url(#clip19)" />
<clipPath id="clip20"><path d="M465,80 L502,80 L502,124 L465,124 L465,80 Z" /></clipPath>
<path d="M471,86 L483.5,86 L483.5,118 L471,118 M483.5,102 L496,102" style="fill:none;stroke:rgb(195,214,155);stroke-width:5" clip-path="url(#clip20)" />
<clipPath id="clip21"><path d="M500,87 L636,87 L636,118 L500,118 L500,87 Z" /></clipPath>
<path d="M506,88 C503.2382813,88 501,90.2382813 501,93 L501,111 C501,113.7617188 503.2382813,116 506,116 L629,116 C631.7617188,116 634,113.7617188 634,111 L634,93 C634,90.2382813 631.7617188,88 629,88 Z M506,88" style="fill:rgb(195,214,155);stroke:none" clip-path="url(#clip21)" />
<text x="511" y="105" style="font:10px Dialog">CA des serveurs</text>
<clipPath id="clip22"><path d="M705,37 L940,37 L940,68 L705,68 L705,37 Z" /></clipPath>
<path d="M711,38 C708.2382813,38 706,40.2382813 706,43 L706,61 C706,63.7617188 708.2382813,66 711,66 L933,66 C935.7617188,66 938,63.7617188 938,61 L938,43 C938,40.2382813 935.7617188,38 933,38 Z M711,38" style="fill:rgb(195,214,155);stroke:none" clip-path="url(#clip22)" />
<text x="716" y="55" style="font:10px Dialog">Keystore des connecteurs jetty</text>
<clipPath id="clip23"><path d="M263,153 L1207,153 L1207,296 L263,296 Z M269,216 C266.2382813,216 264,218.2382813 264,221 L264,253 C264,255.7617188 266.2382813,258 269,258 L404,258 C406.7617188,258 409,255.7617188 409,253 L409,221 C409,218.2382813 406.7617188,216 404,216 Z M269,216 Z M269,216" /></clipPath>
<path d="M422,237 C424.2226563,204.3339844 427.5546875,188 432,188" style="fill:none;stroke:rgb(85,142,213)" clip-path="url(#clip23)" />
<clipPath id="clip24"><path d="M263,153 L1207,153 L1207,296 L263,296 Z M269,216 C266.2382813,216 264,218.2382813 264,221 L264,253 C264,255.7617188 266.2382813,258 269,258 L404,258 C406.7617188,258 409,255.7617188 409,253 L409,221 C409,218.2382813 406.7617188,216 404,216 Z M269,216 Z M269,216" /></clipPath>
<path d="M422,237 C424.2226563,226.3339844 427.5546875,221 432,221" style="fill:none;stroke:rgb(85,142,213)" clip-path="url(#clip24)" />
<clipPath id="clip25"><path d="M263,153 L1207,153 L1207,296 L263,296 Z M269,216 C266.2382813,216 264,218.2382813 264,221 L264,253 C264,255.7617188 266.2382813,258 269,258 L404,258 C406.7617188,258 409,255.7617188 409,253 L409,221 C409,218.2382813 406.7617188,216 404,216 Z M269,216 Z M269,216" /></clipPath>
<path d="M422,237 C424.2226563,248.3339844 427.5546875,254 432,254" style="fill:none;stroke:rgb(85,142,213)" clip-path="url(#clip25)" />
<clipPath id="clip26"><path d="M263,153 L1207,153 L1207,296 L263,296 Z M269,216 C266.2382813,216 264,218.2382813 264,221 L264,253 C264,255.7617188 266.2382813,258 269,258 L404,258 C406.7617188,258 409,255.7617188 409,253 L409,221 C409,218.2382813 406.7617188,216 404,216 Z M269,216 Z M269,216" /></clipPath>
<path d="M422,237 C424.2226563,270.3339844 427.5546875,287 432,287" style="fill:none;stroke:rgb(85,142,213)" clip-path="url(#clip26)" />
<clipPath id="clip27"><path d="M262,152 L1208,152 L1208,297 L262,297 L262,152 Z" /></clipPath>
<path d="M409,237 L422,237" style="fill:none;stroke:rgb(85,142,213)" clip-path="url(#clip27)" />
<clipPath id="clip28"><path d="M262,214 L412,214 L412,261 L262,261 L262,214 Z" /></clipPath>
<path d="M269,216 C266.2382813,216 264,218.2382813 264,221 L264,253 C264,255.7617188 266.2382813,258 269,258 L404,258 C406.7617188,258 409,255.7617188 409,253 L409,221 C409,218.2382813 406.7617188,216 404,216 Z M269,216" style="fill:rgb(220,230,242);stroke:none" clip-path="url(#clip28)" />
<clipPath id="clip29"><path d="M262,214 L412,214 L412,261 L262,261 L262,214 Z" /></clipPath>
<path d="M269,216 C266.2382813,216 264,218.2382813 264,221 L264,253 C264,255.7617188 266.2382813,258 269,258 L404,258 C406.7617188,258 409,255.7617188 409,253 L409,221 C409,218.2382813 406.7617188,216 404,216 Z M269,216" style="fill:none;stroke:rgb(85,142,213);stroke-width:2" clip-path="url(#clip29)" />
<text x="278" y="240" style="font:13px Open Sans">client-external</text>
<clipPath id="clip30"><path d="M429,157 L625,157 L625,191 L429,191 L429,157 Z" /></clipPath>
<path d="M432,188 L621,188 Z M432,188" style="fill:none;stroke:rgb(85,142,213);stroke-width:3" clip-path="url(#clip30)" />
<text x="443" y="176" style="font:10px Open Sans">granted_store-external.jks</text>
<clipPath id="clip31"><path d="M429,190 L552,190 L552,224 L429,224 L429,190 Z" /></clipPath>
<path d="M432,221 L548,221 Z M432,221" style="fill:none;stroke:rgb(85,142,213);stroke-width:3" clip-path="url(#clip31)" />
<text x="443" y="209" style="font:10px Open Sans">ihm-demo.p12</text>
<clipPath id="clip32"><path d="M429,223 L560,223 L560,257 L429,257 L429,223 Z" /></clipPath>
<path d="M432,254 L556,254 Z M432,254" style="fill:none;stroke:rgb(85,142,213);stroke-width:3" clip-path="url(#clip32)" />
<text x="443" y="242" style="font:10px Open Sans">ihm-recette.p12</text>
<clipPath id="clip33"><path d="M429,256 L601,256 L601,290 L429,290 L429,256 Z" /></clipPath>
<path d="M432,287 L597,287 Z M432,287" style="fill:none;stroke:rgb(85,142,213);stroke-width:3" clip-path="url(#clip33)" />
<text x="443" y="275" style="font:10px Open Sans">truststore_external.jks</text>
<clipPath id="clip34"><path d="M623,152 L660,152 L660,196 L623,196 L623,152 Z" /></clipPath>
<path d="M629,158 L641.5,158 L641.5,190 L629,190 M641.5,174 L654,174" style="fill:none;stroke:rgb(195,214,155);stroke-width:5" clip-path="url(#clip34)" />
<clipPath id="clip35"><path d="M599,251 L636,251 L636,295 L599,295 L599,251 Z" /></clipPath>
<path d="M605,257 L617.5,257 L617.5,289 L605,289 M617.5,273 L630,273" style="fill:none;stroke:rgb(195,214,155);stroke-width:5" clip-path="url(#clip35)" />
<clipPath id="clip36"><path d="M658,159 L1208,159 L1208,190 L658,190 L658,159 Z" /></clipPath>
<path d="M664,160 C661.2382813,160 659,162.2382813 659,165 L659,183 C659,185.7617188 661.2382813,188 664,188 L1201,188 C1203.7617188,188 1206,185.7617188 1206,183 L1206,165 C1206,162.2382813 1203.7617188,160 1201,160 Z M664,160" style="fill:rgb(195,214,155);stroke:none" clip-path="url(#clip36)" />
<text x="669" y="177" style="font:10px Dialog">Contient : les certificats des clients externes (client-external/clients/**/*.crt)</text>
<clipPath id="clip37"><path d="M634,250 L1129,250 L1129,297 L634,297 L634,250 Z" /></clipPath>
<path d="M640,251 C637.2382813,251 635,253.2382813 635,256 L635,290 C635,292.7617188 637.2382813,295 640,295 L1122,295 C1124.7617188,295 1127,292.7617188 1127,290 L1127,256 C1127,253.2382813 1124.7617188,251 1122,251 Z M640,251" style="fill:rgb(195,214,155);stroke:none" clip-path="url(#clip37)" />
<text x="645" y="268" style="font:10px Dialog">Contient : les CA des serveurs (server/ca/*.crt) + les CA des clients </text>
<text x="645" y="284" style="font:10px Dialog">externes (client-external/ca/*.crt)</text>
<clipPath id="clip38"><path d="M256,326 L1178,326 L1178,436 L256,436 Z M262,373 C259.2382813,373 257,375.2382813 257,378 L257,410 C257,412.7617188 259.2382813,415 262,415 L392,415 C394.7617188,415 397,412.7617188 397,410 L397,378 C397,375.2382813 394.7617188,373 392,373 Z M262,373 Z M262,373" /></clipPath>
<path d="M410,394 C412.2226563,372 415.5546875,361 420,361" style="fill:none;stroke:rgb(85,142,213)" clip-path="url(#clip38)" />
<clipPath id="clip39"><path d="M256,326 L1178,326 L1178,436 L256,436 Z M262,373 C259.2382813,373 257,375.2382813 257,378 L257,410 C257,412.7617188 259.2382813,415 262,415 L392,415 C394.7617188,415 397,412.7617188 397,410 L397,378 C397,375.2382813 394.7617188,373 392,373 Z M262,373 Z M262,373" /></clipPath>
<path d="M410,394 C412.2226563,394 415.5546875,394 420,394" style="fill:none;stroke:rgb(85,142,213)" clip-path="url(#clip39)" />
<clipPath id="clip40"><path d="M256,326 L1178,326 L1178,436 L256,436 Z M262,373 C259.2382813,373 257,375.2382813 257,378 L257,410 C257,412.7617188 259.2382813,415 262,415 L392,415 C394.7617188,415 397,412.7617188 397,410 L397,378 C397,375.2382813 394.7617188,373 392,373 Z M262,373 Z M262,373" /></clipPath>
<path d="M410,394 C412.2226563,416 415.5546875,427 420,427" style="fill:none;stroke:rgb(85,142,213)" clip-path="url(#clip40)" />
<clipPath id="clip41"><path d="M255,325 L1179,325 L1179,437 L255,437 L255,325 Z" /></clipPath>
<path d="M397,394 L410,394" style="fill:none;stroke:rgb(85,142,213)" clip-path="url(#clip41)" />
<clipPath id="clip42"><path d="M255,371 L400,371 L400,418 L255,418 L255,371 Z" /></clipPath>
<path d="M262,373 C259.2382813,373 257,375.2382813 257,378 L257,410 C257,412.7617188 259.2382813,415 262,415 L392,415 C394.7617188,415 397,412.7617188 397,410 L397,378 C397,375.2382813 394.7617188,373 392,373 Z M262,373" style="fill:rgb(220,230,242);stroke:none" clip-path="url(#clip42)" />
<clipPath id="clip43"><path d="M255,371 L400,371 L400,418 L255,418 L255,371 Z" /></clipPath>
<path d="M262,373 C259.2382813,373 257,375.2382813 257,378 L257,410 C257,412.7617188 259.2382813,415 262,415 L392,415 C394.7617188,415 397,412.7617188 397,410 L397,378 C397,375.2382813 394.7617188,373 392,373 Z M262,373" style="fill:none;stroke:rgb(85,142,213);stroke-width:2" clip-path="url(#clip43)" />
<text x="271" y="396" style="font:13px Open Sans">client-storage</text>
<clipPath id="clip44"><path d="M417,330 L608,330 L608,364 L417,364 L417,330 Z" /></clipPath>
<path d="M420,361 L604,361 Z M420,361" style="fill:none;stroke:rgb(85,142,213);stroke-width:3" clip-path="url(#clip44)" />
<text x="431" y="348" style="font:10px Open Sans">granted_store-storage.jks</text>
<clipPath id="clip45"><path d="M417,363 L522,363 L522,397 L417,397 L417,363 Z" /></clipPath>
<path d="M420,394 L518,394 Z M420,394" style="fill:none;stroke:rgb(85,142,213);stroke-width:3" clip-path="url(#clip45)" />
<text x="431" y="381" style="font:10px Open Sans">storage.p12</text>
<clipPath id="clip46"><path d="M417,396 L584,396 L584,430 L417,430 L417,396 Z" /></clipPath>
<path d="M420,427 L580,427 Z M420,427" style="fill:none;stroke:rgb(85,142,213);stroke-width:3" clip-path="url(#clip46)" />
<text x="431" y="414" style="font:10px Open Sans">truststore_storage.jks</text>
<clipPath id="clip47"><path d="M606,325 L643,325 L643,369 L606,369 L606,325 Z" /></clipPath>
<path d="M612,331 L624.5,331 L624.5,363 L612,363 M624.5,347 L637,347" style="fill:none;stroke:rgb(195,214,155);stroke-width:5" clip-path="url(#clip47)" />
<clipPath id="clip48"><path d="M582,391 L619,391 L619,435 L582,435 L582,391 Z" /></clipPath>
<path d="M588,397 L600.5,397 L600.5,429 L588,429 M600.5,413 L613,413" style="fill:none;stroke:rgb(195,214,155);stroke-width:5" clip-path="url(#clip48)" />
<clipPath id="clip49"><path d="M641,332 L1179,332 L1179,363 L641,363 L641,332 Z" /></clipPath>
<path d="M647,333 C644.2382813,333 642,335.2382813 642,338 L642,356 C642,358.7617188 644.2382813,361 647,361 L1172,361 C1174.7617188,361 1177,358.7617188 1177,356 L1177,338 C1177,335.2382813 1174.7617188,333 1172,333 Z M647,333" style="fill:rgb(195,214,155);stroke:none" clip-path="url(#clip49)" />
<text x="652" y="349" style="font:10px Dialog">Contient : les certificats des clients storage (client-storage/clients/**/*.crt)</text>
<clipPath id="clip50"><path d="M617,390 L1112,390 L1112,437 L617,437 L617,390 Z" /></clipPath>
<path d="M623,391 C620.2382813,391 618,393.2382813 618,396 L618,430 C618,432.7617188 620.2382813,435 623,435 L1105,435 C1107.7617188,435 1110,432.7617188 1110,430 L1110,396 C1110,393.2382813 1107.7617188,391 1105,391 Z M623,391" style="fill:rgb(195,214,155);stroke:none" clip-path="url(#clip50)" />
<text x="628" y="407" style="font:10px Dialog">Contient : les CA des serveurs (server/ca/*.crt) + les CA des clients </text>
<text x="628" y="423" style="font:10px Dialog">storage (client-storage/ca/*.crt)</text>
<clipPath id="clip51"><path d="M205,466 L535,466 L535,535 L205,535 Z M211,491 C208.2382813,491 206,493.2382813 206,496 L206,528 C206,530.7617188 208.2382813,533 211,533 L343,533 C345.7617188,533 348,530.7617188 348,528 L348,496 C348,493.2382813 345.7617188,491 343,491 Z M211,491 Z M211,491" /></clipPath>
<path d="M361,512 C363.2226563,501.3339844 366.5546875,496 371,496" style="fill:none;stroke:rgb(85,142,213)" clip-path="url(#clip51)" />
<clipPath id="clip52"><path d="M205,466 L535,466 L535,535 L205,535 Z M211,491 C208.2382813,491 206,493.2382813 206,496 L206,528 C206,530.7617188 208.2382813,533 211,533 L343,533 C345.7617188,533 348,530.7617188 348,528 L348,496 C348,493.2382813 345.7617188,491 343,491 Z M211,491 Z M211,491" /></clipPath>
<path d="M361,512 C363.2226563,523.3339844 366.5546875,529 371,529" style="fill:none;stroke:rgb(85,142,213)" clip-path="url(#clip52)" />
<clipPath id="clip53"><path d="M204,465 L536,465 L536,536 L204,536 L204,465 Z" /></clipPath>
<path d="M348,512 L361,512" style="fill:none;stroke:rgb(85,142,213)" clip-path="url(#clip53)" />
<clipPath id="clip54"><path d="M204,489 L351,489 L351,536 L204,536 L204,489 Z" /></clipPath>
<path d="M211,491 C208.2382813,491 206,493.2382813 206,496 L206,528 C206,530.7617188 208.2382813,533 211,533 L343,533 C345.7617188,533 348,530.7617188 348,528 L348,496 C348,493.2382813 345.7617188,491 343,491 Z M211,491" style="fill:rgb(220,230,242);stroke:none" clip-path="url(#clip54)" />
<clipPath id="clip55"><path d="M204,489 L351,489 L351,536 L204,536 L204,489 Z" /></clipPath>
<path d="M211,491 C208.2382813,491 206,493.2382813 206,496 L206,528 C206,530.7617188 208.2382813,533 211,533 L343,533 C345.7617188,533 348,530.7617188 348,528 L348,496 C348,493.2382813 345.7617188,491 343,491 Z M211,491" style="fill:none;stroke:rgb(85,142,213);stroke-width:2" clip-path="url(#clip55)" />
<text x="220" y="514" style="font:13px Open Sans">timestamping</text>
<clipPath id="clip56"><path d="M368,465 L536,465 L536,499 L368,499 L368,465 Z" /></clipPath>
<path d="M371,496 L532,496 Z M371,496" style="fill:none;stroke:rgb(85,142,213);stroke-width:3" clip-path="url(#clip56)" />
<text x="382" y="483" style="font:10px Open Sans">keystore_logbook.p12</text>
<clipPath id="clip57"><path d="M368,498 L529,498 L529,532 L368,532 L368,498 Z" /></clipPath>
<path d="M371,529 L525,529 Z M371,529" style="fill:none;stroke:rgb(85,142,213);stroke-width:3" clip-path="url(#clip57)" />
<text x="382" y="516" style="font:10px Open Sans">keystore_worker.p12</text>
</svg>
