<?xml version="1.0" encoding="UTF-8"?><svg xmlns="http://www.w3.org/2000/svg" xmlns:xlink="http://www.w3.org/1999/xlink" fill-opacity="1" color-rendering="auto" color-interpolation="auto" text-rendering="auto" stroke="black" stroke-linecap="square" width="3321" stroke-miterlimit="10" shape-rendering="auto" stroke-opacity="1" fill="black" stroke-dasharray="none" font-weight="normal" stroke-width="1" height="1958" font-family="'Dialog'" font-style="normal" stroke-linejoin="miter" font-size="12px" stroke-dashoffset="0" image-rendering="auto">
  <!--Generated by ySVG 2.5-->
  <defs id="genericDefs"/>
  <g>
    <defs id="defs1">
      <clipPath clipPathUnits="userSpaceOnUse" id="clipPath1">
        <path d="M0 0 L3321 0 L3321 1958 L0 1958 L0 0 Z"/>
      </clipPath>
      <clipPath clipPathUnits="userSpaceOnUse" id="clipPath2">
        <path d="M-1465 -1364 L1856 -1364 L1856 594 L-1465 594 L-1465 -1364 Z"/>
      </clipPath>
    </defs>
    <g fill="white" text-rendering="geometricPrecision" shape-rendering="geometricPrecision" transform="translate(1465,1364)" stroke="white">
      <rect x="-1465" width="3321" height="1958" y="-1364" clip-path="url(#clipPath2)" stroke="none"/>
    </g>
    <g fill="rgb(153,204,255)" text-rendering="geometricPrecision" shape-rendering="geometricPrecision" transform="matrix(1,0,0,1,1465,1364)" stroke="rgb(153,204,255)">
      <rect x="-1449.95" width="3290.7156" height="715.1563" y="-1348.3125" clip-path="url(#clipPath2)" stroke="none"/>
      <rect x="-1449.95" y="-1348.3125" clip-path="url(#clipPath2)" fill="rgb(218,255,255)" width="1" height="715.1563" stroke="none"/>
      <rect x="-1448.95" y="-1348.3125" clip-path="url(#clipPath2)" fill="rgb(218,255,255)" width="3288.7156" height="1" stroke="none"/>
      <rect x="-1448.95" y="-634.1562" clip-path="url(#clipPath2)" fill="rgb(107,142,178)" width="3289.7156" height="1" stroke="none"/>
      <rect x="1839.7656" y="-1348.3125" clip-path="url(#clipPath2)" fill="rgb(107,142,178)" width="1" height="714.1563" stroke="none"/>
    </g>
    <g font-size="40px" stroke-linecap="butt" transform="matrix(1,0,0,1,1465,1364)" text-rendering="geometricPrecision" font-family="sans-serif" shape-rendering="geometricPrecision" stroke-miterlimit="1.45">
      <text x="1372.168" xml:space="preserve" y="-1305.1836" clip-path="url(#clipPath2)" stroke="none">infra / DSI : hors VITAM</text>
    </g>
    <g fill="rgb(204,204,255)" text-rendering="geometricPrecision" shape-rendering="geometricPrecision" transform="matrix(1,0,0,1,1465,1364)" stroke="rgb(204,204,255)">
      <rect x="-1449.95" width="3290.7156" height="1130.3002" y="-551.9157" clip-path="url(#clipPath2)" stroke="none"/>
      <rect x="-1449.95" y="-551.9157" clip-path="url(#clipPath2)" fill="white" width="1" height="1130.3002" stroke="none"/>
      <rect x="-1448.95" y="-551.9157" clip-path="url(#clipPath2)" fill="white" width="3288.7156" height="1" stroke="none"/>
      <rect x="-1448.95" y="577.3845" clip-path="url(#clipPath2)" fill="rgb(142,142,178)" width="3289.7156" height="1" stroke="none"/>
      <rect x="1839.7656" y="-551.9157" clip-path="url(#clipPath2)" fill="rgb(142,142,178)" width="1" height="1129.3002" stroke="none"/>
    </g>
    <g font-size="40px" stroke-linecap="butt" transform="matrix(1,0,0,1,1465,1364)" text-rendering="geometricPrecision" font-family="sans-serif" shape-rendering="geometricPrecision" stroke-miterlimit="1.45">
      <text x="1709.2969" xml:space="preserve" y="-508.7868" clip-path="url(#clipPath2)" stroke="none">VITAM</text>
    </g>
    <g fill="white" text-rendering="geometricPrecision" shape-rendering="geometricPrecision" transform="matrix(1,0,0,1,1465,1364)" stroke="white">
      <rect x="-1320.5573" width="323" height="270" y="-74.1094" clip-path="url(#clipPath2)" stroke="none"/>
    </g>
    <g text-rendering="geometricPrecision" stroke-miterlimit="1.45" shape-rendering="geometricPrecision" transform="matrix(1,0,0,1,1465,1364)" stroke-linecap="butt">
      <rect fill="none" x="-1320.5573" width="323" height="270" y="-74.1094" clip-path="url(#clipPath2)"/>
      <text x="-1296.4303" font-size="20px" y="56.1738" clip-path="url(#clipPath2)" font-family="sans-serif" stroke="none" xml:space="preserve">Récupération de la solution</text>
      <text x="-1237.5631" font-size="20px" y="79.4551" clip-path="url(#clipPath2)" font-family="sans-serif" stroke="none" xml:space="preserve">de déploiement</text>
    </g>
    <g fill="white" text-rendering="geometricPrecision" shape-rendering="geometricPrecision" transform="matrix(1,0,0,1,1465,1364)" stroke="white">
      <rect x="-1315.5573" width="323" height="280" y="-507.6094" clip-path="url(#clipPath2)" stroke="none"/>
    </g>
    <g text-rendering="geometricPrecision" stroke-miterlimit="1.45" shape-rendering="geometricPrecision" transform="matrix(1,0,0,1,1465,1364)" stroke-linecap="butt">
      <rect fill="none" x="-1315.5573" width="323" height="280" y="-507.6094" clip-path="url(#clipPath2)"/>
      <text x="-1284.7994" font-size="20px" y="-360.6855" clip-path="url(#clipPath2)" font-family="sans-serif" stroke="none" xml:space="preserve">Récupération des binaires</text>
    </g>
    <g fill="white" text-rendering="geometricPrecision" shape-rendering="geometricPrecision" transform="matrix(1,0,0,1,1465,1364)" stroke="white">
      <rect x="-780.2969" width="323" height="280" y="-1320.7031" clip-path="url(#clipPath2)" stroke="none"/>
    </g>
    <g text-rendering="geometricPrecision" stroke-miterlimit="1.45" shape-rendering="geometricPrecision" transform="matrix(1,0,0,1,1465,1364)" stroke-linecap="butt">
      <rect fill="none" x="-780.2969" width="323" height="280" y="-1320.7031" clip-path="url(#clipPath2)"/>
      <text x="-683.1426" font-size="20px" y="-1173.7793" clip-path="url(#clipPath2)" font-family="sans-serif" stroke="none" xml:space="preserve">Mise en repo</text>
    </g>
    <g fill="white" text-rendering="geometricPrecision" shape-rendering="geometricPrecision" transform="matrix(1,0,0,1,1465,1364)" stroke="white">
      <rect x="-780.2969" width="323" height="280" y="-950.4219" clip-path="url(#clipPath2)" stroke="none"/>
    </g>
    <g text-rendering="geometricPrecision" stroke-miterlimit="1.45" shape-rendering="geometricPrecision" transform="matrix(1,0,0,1,1465,1364)" stroke-linecap="butt">
      <rect fill="none" x="-780.2969" width="323" height="280" y="-950.4219" clip-path="url(#clipPath2)"/>
      <text x="-742.9033" font-size="20px" y="-815.1387" clip-path="url(#clipPath2)" font-family="sans-serif" stroke="none" xml:space="preserve">VM VITAM savent utiliser</text>
      <text x="-658.8457" font-size="20px" y="-791.8574" clip-path="url(#clipPath2)" font-family="sans-serif" stroke="none" xml:space="preserve">les repo</text>
    </g>
    <g fill="white" text-rendering="geometricPrecision" shape-rendering="geometricPrecision" transform="matrix(1,0,0,1,1465,1364)" stroke="white">
      <rect x="-1315.5573" width="323" height="280" y="-950.4219" clip-path="url(#clipPath2)" stroke="none"/>
    </g>
    <g text-rendering="geometricPrecision" stroke-miterlimit="1.45" shape-rendering="geometricPrecision" transform="matrix(1,0,0,1,1465,1364)" stroke-linecap="butt">
      <rect fill="none" x="-1315.5573" width="323" height="280" y="-950.4219" clip-path="url(#clipPath2)"/>
      <text x="-1275.8785" font-size="20px" y="-803.498" clip-path="url(#clipPath2)" font-family="sans-serif" stroke="none" xml:space="preserve">Création des VMs VITAM</text>
    </g>
    <g fill="white" text-rendering="geometricPrecision" shape-rendering="geometricPrecision" transform="matrix(1,0,0,1,1465,1364)" stroke="white">
      <rect x="-780.2969" width="323" height="270" y="-74.1094" clip-path="url(#clipPath2)" stroke="none"/>
    </g>
    <g text-rendering="geometricPrecision" stroke-miterlimit="1.45" shape-rendering="geometricPrecision" transform="matrix(1,0,0,1,1465,1364)" stroke-linecap="butt">
      <rect fill="none" x="-780.2969" width="323" height="270" y="-74.1094" clip-path="url(#clipPath2)"/>
      <text x="-762.3174" font-size="20px" y="67.8145" clip-path="url(#clipPath2)" font-family="sans-serif" stroke="none" xml:space="preserve">Mise en place de l'inventaire</text>
    </g>
    <g fill="white" text-rendering="geometricPrecision" shape-rendering="geometricPrecision" transform="matrix(1,0,0,1,1465,1364)" stroke="white">
      <rect x="-267.1302" width="323" height="270" y="282.7656" clip-path="url(#clipPath2)" stroke="none"/>
    </g>
    <g text-rendering="geometricPrecision" stroke-miterlimit="1.45" shape-rendering="geometricPrecision" transform="matrix(1,0,0,1,1465,1364)" stroke-linecap="butt">
      <rect fill="none" x="-267.1302" width="323" height="270" y="282.7656" clip-path="url(#clipPath2)"/>
      <text x="-237.7835" font-size="20px" y="401.4082" clip-path="url(#clipPath2)" font-family="sans-serif" stroke="none" xml:space="preserve">Mise en place  des fichiers</text>
      <text x="-252.1683" font-size="20px" y="424.6895" clip-path="url(#clipPath2)" font-family="sans-serif" stroke="none" xml:space="preserve">environments/group_vars/all/</text>
      <text x="-207.7542" font-size="20px" y="447.9707" clip-path="url(#clipPath2)" font-family="sans-serif" stroke="none" xml:space="preserve">depuis les exemples</text>
    </g>
    <g fill="white" text-rendering="geometricPrecision" shape-rendering="geometricPrecision" transform="matrix(1,0,0,1,1465,1364)" stroke="white">
      <rect x="-267.1302" width="323" height="270" y="-70.7031" clip-path="url(#clipPath2)" stroke="none"/>
    </g>
    <g text-rendering="geometricPrecision" stroke-miterlimit="1.45" shape-rendering="geometricPrecision" transform="matrix(1,0,0,1,1465,1364)" stroke-linecap="butt">
      <rect fill="none" x="-267.1302" width="323" height="270" y="-70.7031" clip-path="url(#clipPath2)"/>
      <text x="-195.0394" font-size="20px" y="36.2988" clip-path="url(#clipPath2)" font-family="sans-serif" stroke="none" xml:space="preserve">Mise en place des</text>
      <text x="-184.8197" font-size="20px" y="59.5801" clip-path="url(#clipPath2)" font-family="sans-serif" stroke="none" xml:space="preserve">fichiers vaultés </text>
      <text x="-156.1234" font-size="20px" y="82.8613" clip-path="url(#clipPath2)" font-family="sans-serif" stroke="none" xml:space="preserve">depuis les</text>
      <text x="-188.4134" font-size="20px" y="106.1426" clip-path="url(#clipPath2)" font-family="sans-serif" stroke="none" xml:space="preserve">ficheirs example</text>
    </g>
    <g fill="white" text-rendering="geometricPrecision" shape-rendering="geometricPrecision" transform="matrix(1,0,0,1,1465,1364)" stroke="white">
      <rect x="-287.7552" width="364.25" height="270" y="-424.1719" clip-path="url(#clipPath2)" stroke="none"/>
    </g>
    <g text-rendering="geometricPrecision" stroke-miterlimit="1.45" shape-rendering="geometricPrecision" transform="matrix(1,0,0,1,1465,1364)" stroke-linecap="butt">
      <rect fill="none" x="-287.7552" width="364.25" height="270" y="-424.1719" clip-path="url(#clipPath2)"/>
      <text x="-221.4945" font-size="20px" y="-293.8887" clip-path="url(#clipPath2)" font-family="sans-serif" stroke="none" xml:space="preserve">Lancer le script ansible</text>
      <text x="-278.599" font-size="20px" y="-270.6074" clip-path="url(#clipPath2)" font-family="sans-serif" stroke="none" xml:space="preserve">generate_hostvars_for_1_interface</text>
    </g>
    <g fill="white" text-rendering="geometricPrecision" shape-rendering="geometricPrecision" transform="matrix(1,0,0,1,1465,1364)" stroke="white">
      <rect x="155.9635" width="323" height="270" y="-424.1719" clip-path="url(#clipPath2)" stroke="none"/>
    </g>
    <g text-rendering="geometricPrecision" stroke-miterlimit="1.45" shape-rendering="geometricPrecision" transform="matrix(1,0,0,1,1465,1364)" stroke-linecap="butt">
      <rect fill="none" x="155.9635" width="323" height="270" y="-424.1719" clip-path="url(#clipPath2)"/>
      <text x="195.8132" font-size="20px" y="-317.1699" clip-path="url(#clipPath2)" font-family="sans-serif" stroke="none" xml:space="preserve">Ajout dans les host_vars</text>
      <text x="238.6842" font-size="20px" y="-293.8887" clip-path="url(#clipPath2)" font-family="sans-serif" stroke="none" xml:space="preserve">des éventuelles</text>
      <text x="250.1882" font-size="20px" y="-270.6074" clip-path="url(#clipPath2)" font-family="sans-serif" stroke="none" xml:space="preserve">modifications</text>
      <text x="188.5719" font-size="20px" y="-247.3262" clip-path="url(#clipPath2)" font-family="sans-serif" stroke="none" xml:space="preserve">(consul_disabed ; ip_wan)</text>
    </g>
    <g fill="white" text-rendering="geometricPrecision" shape-rendering="geometricPrecision" transform="matrix(1,0,0,1,1465,1364)" stroke="white">
      <rect x="503.9635" width="323" height="270" y="-70.7031" clip-path="url(#clipPath2)" stroke="none"/>
    </g>
    <g text-rendering="geometricPrecision" stroke-miterlimit="1.45" shape-rendering="geometricPrecision" transform="matrix(1,0,0,1,1465,1364)" stroke-linecap="butt">
      <rect fill="none" x="503.9635" width="323" height="270" y="-70.7031" clip-path="url(#clipPath2)"/>
      <text x="643.3786" font-size="20px" y="-10.2637" clip-path="url(#clipPath2)" font-family="sans-serif" stroke="none" xml:space="preserve">PKI :</text>
      <text x="596.7477" font-size="20px" y="13.0176" clip-path="url(#clipPath2)" font-family="sans-serif" stroke="none" xml:space="preserve">- generate_ca</text>
      <text x="583.4811" font-size="20px" y="36.2988" clip-path="url(#clipPath2)" font-family="sans-serif" stroke="none" xml:space="preserve">- generate_certs</text>
      <text x="580.8298" font-size="20px" y="59.5801" clip-path="url(#clipPath2)" font-family="sans-serif" stroke="none" xml:space="preserve">-generate_stores</text>
      <text x="650.2731" font-size="20px" y="82.8613" clip-path="url(#clipPath2)" font-family="sans-serif" stroke="none" xml:space="preserve">OU</text>
      <text x="595.8298" font-size="20px" y="106.1426" clip-path="url(#clipPath2)" font-family="sans-serif" stroke="none" xml:space="preserve">mise en place</text>
      <text x="608.1882" font-size="20px" y="129.4238" clip-path="url(#clipPath2)" font-family="sans-serif" stroke="none" xml:space="preserve">des fichiers</text>
      <text x="608.9304" font-size="20px" y="152.7051" clip-path="url(#clipPath2)" font-family="sans-serif" stroke="none" xml:space="preserve">si autre PKI</text>
    </g>
    <g fill="silver" text-rendering="geometricPrecision" shape-rendering="geometricPrecision" transform="matrix(1,0,0,1,1465,1364)" stroke="silver">
      <rect x="963.2292" width="352.6875" height="349.6875" y="-110.5469" clip-path="url(#clipPath2)" stroke="none"/>
    </g>
    <g text-rendering="geometricPrecision" stroke-miterlimit="1.45" shape-rendering="geometricPrecision" transform="matrix(1,0,0,1,1465,1364)" stroke-linecap="butt">
      <rect fill="none" x="963.2292" width="352.6875" height="349.6875" y="-110.5469" clip-path="url(#clipPath2)"/>
      <text x="1006.7136" font-size="32px" y="56.75" clip-path="url(#clipPath2)" font-family="sans-serif" stroke="none" xml:space="preserve">Déploiement de </text>
      <text x="1089.3854" font-size="32px" y="94" clip-path="url(#clipPath2)" font-family="sans-serif" stroke="none" xml:space="preserve">VITAM</text>
    </g>
    <g fill="rgb(153,153,153)" text-rendering="geometricPrecision" shape-rendering="geometricPrecision" transform="matrix(1,0,0,1,1465,1364)" stroke="rgb(153,153,153)">
      <rect x="1452.1823" width="323" height="270" y="-70.7031" clip-path="url(#clipPath2)" stroke="none"/>
    </g>
    <g text-rendering="geometricPrecision" stroke-miterlimit="1.45" shape-rendering="geometricPrecision" transform="matrix(1,0,0,1,1465,1364)" stroke-linecap="butt">
      <rect fill="none" x="1452.1823" width="323" height="270" y="-70.7031" clip-path="url(#clipPath2)"/>
      <text x="1499.2047" font-size="20px" y="71.2207" clip-path="url(#clipPath2)" font-family="sans-serif" stroke="none" xml:space="preserve">Déploiement des extra</text>
      <path fill="none" d="M-1315.5211 -443.4375 L-1394.625 -443.4375 L-1394.625 -1180.7031 L-790.2969 -1180.7031" stroke-width="3" clip-path="url(#clipPath2)"/>
      <path d="M-780.2969 -1180.7031 L-795.2969 -1186.9531 L-791.5469 -1180.7031 L-795.2969 -1174.4531 Z" stroke-width="3" clip-path="url(#clipPath2)" stroke="none"/>
      <path fill="none" d="M-992.5573 -810.4219 L-790.2969 -810.4219" stroke-width="3" clip-path="url(#clipPath2)"/>
      <path d="M-780.2969 -810.4219 L-795.2969 -816.6719 L-791.5469 -810.4219 L-795.2969 -804.1719 Z" stroke-width="3" clip-path="url(#clipPath2)" stroke="none"/>
      <path fill="none" d="M-997.5573 60.8906 L-790.2969 60.8906" stroke-width="3" clip-path="url(#clipPath2)"/>
      <path d="M-780.2969 60.8906 L-795.2969 54.6406 L-791.5469 60.8906 L-795.2969 67.1406 Z" stroke-width="3" clip-path="url(#clipPath2)" stroke="none"/>
      <path fill="none" d="M-618.7969 195.8906 L-618.7969 421.16 L-274.8 421.16 L-267.1302 421.0061" stroke-width="3" clip-path="url(#clipPath2)"/>
      <path d="M-267.1302 421.0061 L-282.2526 415.0583 L-278.378 421.2318 L-282.0018 427.5558 Z" stroke-width="3" clip-path="url(#clipPath2)" stroke="none"/>
      <path fill="none" d="M-457.2969 61.9626 L-277.13 63.1585" stroke-width="3" clip-path="url(#clipPath2)"/>
      <path d="M-267.1302 63.2249 L-282.0884 56.8755 L-278.3799 63.1502 L-282.1714 69.3752 Z" stroke-width="3" clip-path="url(#clipPath2)" stroke="none"/>
      <path fill="none" d="M-618.7969 -74.1094 L-618.7969 -270.5 L-297.766 -270.5" stroke-width="3" clip-path="url(#clipPath2)"/>
      <path d="M-287.766 -270.5 L-302.766 -276.75 L-299.016 -270.5 L-302.766 -264.25 Z" stroke-width="3" clip-path="url(#clipPath2)" stroke="none"/>
      <path fill="none" d="M-457.2969 -810.4219 L-105.6302 -810.4219 L-105.6302 -434.1719" stroke-width="3" clip-path="url(#clipPath2)"/>
      <path d="M-105.6302 -424.1719 L-99.3802 -439.1719 L-105.6302 -435.4219 L-111.8802 -439.1719 Z" stroke-width="3" clip-path="url(#clipPath2)" stroke="none"/>
      <path fill="none" d="M76.4948 -289.1719 L145.9635 -289.1719" stroke-width="3" clip-path="url(#clipPath2)"/>
      <path d="M155.9635 -289.1719 L140.9635 -295.4219 L144.7135 -289.1719 L140.9635 -282.9219 Z" stroke-width="3" clip-path="url(#clipPath2)" stroke="none"/>
      <path fill="none" d="M55.8698 64.2969 L493.9635 64.2969" stroke-width="3" clip-path="url(#clipPath2)"/>
      <path d="M503.9635 64.2969 L488.9635 58.0469 L492.7135 64.2969 L488.9635 70.5469 Z" stroke-width="3" clip-path="url(#clipPath2)" stroke="none"/>
      <path fill="none" d="M450.3749 -154.1719 L525.5365 -77.8291" stroke-width="3" clip-path="url(#clipPath2)"/>
      <path d="M532.5522 -70.7031 L526.4824 -85.7769 L524.6595 -78.7198 L517.5749 -77.0072 Z" stroke-width="3" clip-path="url(#clipPath2)" stroke="none"/>
      <path fill="none" d="M55.8698 417.7656 L939.75 417.7656 L1139.5729 251.875 L1139.5729 249.1406" stroke-width="3" clip-path="url(#clipPath2)"/>
      <path d="M1139.5729 239.1406 L1133.3229 254.1406 L1139.5729 250.3906 L1145.8229 254.1406 Z" stroke-width="3" clip-path="url(#clipPath2)" stroke="none"/>
      <path fill="none" d="M826.9636 64.2969 L953.2292 64.2969" stroke-width="3" clip-path="url(#clipPath2)"/>
      <path d="M963.2292 64.2969 L948.2292 58.0469 L951.9792 64.2969 L948.2292 70.5469 Z" stroke-width="3" clip-path="url(#clipPath2)" stroke="none"/>
      <path fill="none" d="M-457.2969 -1180.7031 L1139.5729 -1180.7031 L1139.5729 -120.5469" stroke-width="3" clip-path="url(#clipPath2)"/>
      <path d="M1139.5729 -110.5469 L1145.8229 -125.5469 L1139.5729 -121.7969 L1133.3229 -125.5469 Z" stroke-width="3" clip-path="url(#clipPath2)" stroke="none"/>
      <path fill="none" d="M1315.9166 64.2969 L1442.1823 64.2969" stroke-width="3" clip-path="url(#clipPath2)"/>
      <path d="M1452.1823 64.2969 L1437.1823 58.0469 L1440.9323 64.2969 L1437.1823 70.5469 Z" stroke-width="3" clip-path="url(#clipPath2)" stroke="none"/>
    </g>
  </g>
</svg>
