<?xml version="1.0" encoding="UTF-8"?>
<!DOCTYPE svg PUBLIC "-//W3C//DTD SVG 1.1//EN" "http://www.w3.org/Graphics/SVG/1.1/DTD/svg11.dtd">
<svg version="1.2" xmlns="http://www.w3.org/2000/svg" xmlns:xlink="http://www.w3.org/1999/xlink" x="0" y="0" width="1447" height="995" viewBox="0 0 1447 995">
<style type="text/css"><![CDATA[
text { font:12px Dialog; }
]]></style>
<rect x="-1053" y="-1445" width="4834" height="3930" style="fill:rgb(255,255,255);stroke:none" />
<clipPath id="clip1"><path d="M15,15 L1432,15 L1432,980 L15,980 Z M26,440 C21.5820313,440 18,443.5820313 18,448 L18,502 C18,506.4179688 21.5820313,510 26,510 L139,510 C143.4179688,510 147,506.4179688 147,502 L147,448 C147,443.5820313 143.4179688,440 139,440 Z M26,440 Z M26,440" /></clipPath>
<path d="M88.1386719,440 L88.1386719,49.8691406 L151,49.8691406" style="fill:none;stroke:rgb(85,142,213)" clip-path="url(#clip1)" />
<clipPath id="clip2"><path d="M15,15 L1432,15 L1432,980 L15,980 Z M26,440 C21.5820313,440 18,443.5820313 18,448 L18,502 C18,506.4179688 21.5820313,510 26,510 L139,510 C143.4179688,510 147,506.4179688 147,502 L147,448 C147,443.5820313 143.4179688,440 139,440 Z M26,440 Z M26,440" /></clipPath>
<path d="M97.3007813,440 L97.3007813,213.6992188 L193,213.6992188" style="fill:none;stroke:rgb(85,142,213)" clip-path="url(#clip2)" />
<clipPath id="clip3"><path d="M15,15 L1432,15 L1432,980 L15,980 Z M26,440 C21.5820313,440 18,443.5820313 18,448 L18,502 C18,506.4179688 21.5820313,510 26,510 L139,510 C143.4179688,510 147,506.4179688 147,502 L147,448 C147,443.5820313 143.4179688,440 139,440 Z M26,440 Z M26,440" /></clipPath>
<path d="M147,469.4082031 L147,463.859375 L211,463.859375" style="fill:none;stroke:rgb(85,142,213)" clip-path="url(#clip3)" />
<clipPath id="clip4"><path d="M15,15 L1432,15 L1432,980 L15,980 Z M26,440 C21.5820313,440 18,443.5820313 18,448 L18,502 C18,506.4179688 21.5820313,510 26,510 L139,510 C143.4179688,510 147,506.4179688 147,502 L147,448 C147,443.5820313 143.4179688,440 139,440 Z M26,440 Z M26,440" /></clipPath>
<path d="M97.125,510 L97.125,741.8496094 L194,741.8496094" style="fill:none;stroke:rgb(85,142,213)" clip-path="url(#clip4)" />
<clipPath id="clip5"><path d="M15,15 L1432,15 L1432,980 L15,980 Z M26,440 C21.5820313,440 18,443.5820313 18,448 L18,502 C18,506.4179688 21.5820313,510 26,510 L139,510 C143.4179688,510 147,506.4179688 147,502 L147,448 C147,443.5820313 143.4179688,440 139,440 Z M26,440 Z M26,440" /></clipPath>
<path d="M87.8886719,510 L87.8886719,919.8496094 L151,919.8496094" style="fill:none;stroke:rgb(85,142,213)" clip-path="url(#clip5)" />
<clipPath id="clip6"><path d="M14,436 L152,436 L152,515 L14,515 L14,436 Z" /></clipPath>
<path d="M26,440 C21.5820313,440 18,443.5820313 18,448 L18,502 C18,506.4179688 21.5820313,510 26,510 L139,510 C143.4179688,510 147,506.4179688 147,502 L147,448 C147,443.5820313 143.4179688,440 139,440 Z M26,440" style="fill:rgb(220,230,242);stroke:none" clip-path="url(#clip6)" />
<clipPath id="clip7"><path d="M14,436 L152,436 L152,515 L14,515 L14,436 Z" /></clipPath>
<path d="M26,440 C21.5820313,440 18,443.5820313 18,448 L18,502 C18,506.4179688 21.5820313,510 26,510 L139,510 C143.4179688,510 147,506.4179688 147,502 L147,448 C147,443.5820313 143.4179688,440 139,440 Z M26,440" style="fill:none;stroke:rgb(85,142,213);stroke-width:5" clip-path="url(#clip7)" />
<text x="53" y="479" style="font:18px Open Sans">certs</text>
<clipPath id="clip8"><path d="M150,15 L1124,15 L1124,73 L150,73 Z M156,28 C153.2382813,28 151,30.2382813 151,33 L151,66 C151,68.7617188 153.2382813,71 156,71 L293,71 C295.7617188,71 298,68.7617188 298,66 L298,33 C298,30.2382813 295.7617188,28 293,28 Z M156,28 Z M156,28" /></clipPath>
<path d="M311,49.9296875 C313.2226563,49.9765625 316.5546875,50 321,50" style="fill:none;stroke:rgb(85,142,213)" clip-path="url(#clip8)" />
<clipPath id="clip9"><path d="M149,14 L1125,14 L1125,74 L149,74 L149,14 Z" /></clipPath>
<path d="M298,49.8652344 L311,49.9296875" style="fill:none;stroke:rgb(85,142,213)" clip-path="url(#clip9)" />
<clipPath id="clip10"><path d="M149,26 L301,26 L301,74 L149,74 L149,26 Z" /></clipPath>
<path d="M156,28 C153.2382813,28 151,30.2382813 151,33 L151,66 C151,68.7617188 153.2382813,71 156,71 L293,71 C295.7617188,71 298,68.7617188 298,66 L298,33 C298,30.2382813 295.7617188,28 293,28 Z M156,28" style="fill:rgb(220,230,242);stroke:none" clip-path="url(#clip10)" />
<clipPath id="clip11"><path d="M149,26 L301,26 L301,74 L149,74 L149,26 Z" /></clipPath>
<path d="M156,28 C153.2382813,28 151,30.2382813 151,33 L151,66 C151,68.7617188 153.2382813,71 156,71 L293,71 C295.7617188,71 298,68.7617188 298,66 L298,33 C298,30.2382813 295.7617188,28 293,28 Z M156,28" style="fill:none;stroke:rgb(85,142,213);stroke-width:2" clip-path="url(#clip11)" />
<text x="165" y="52" style="font:13px Open Sans">vault-certs.yml</text>
<clipPath id="clip12"><path d="M299,44 L312,44 L312,57 L299,57 L299,44 Z" /></clipPath>
<path d="M309.5,50 C309.5,48.8066406 309.0253906,47.6621094 308.1816406,46.8183594 C307.3378906,45.9746094 306.1933594,45.5 305,45.5 C303.8066406,45.5 302.6621094,45.9746094 301.8183594,46.8183594 C300.9746094,47.6621094 300.5,48.8066406 300.5,50 C300.5,51.1933594 300.9746094,52.3378906 301.8183594,53.1816406 C302.6621094,54.0253906 303.8066406,54.5 305,54.5 C306.1933594,54.5 307.3378906,54.0253906 308.1816406,53.1816406 C309.0253906,52.3378906 309.5,51.1933594 309.5,50 Z M309.5,50" style="fill:rgb(250,250,250);stroke:none" clip-path="url(#clip12)" />
<clipPath id="clip13"><path d="M299,44 L312,44 L312,57 L299,57 L299,44 Z" /></clipPath>
<path d="M309.5,50 C309.5,48.8066406 309.0253906,47.6621094 308.1816406,46.8183594 C307.3378906,45.9746094 306.1933594,45.5 305,45.5 C303.8066406,45.5 302.6621094,45.9746094 301.8183594,46.8183594 C300.9746094,47.6621094 300.5,48.8066406 300.5,50 C300.5,51.1933594 300.9746094,52.3378906 301.8183594,53.1816406 C302.6621094,54.0253906 303.8066406,54.5 305,54.5 C306.1933594,54.5 307.3378906,54.0253906 308.1816406,53.1816406 C309.0253906,52.3378906 309.5,51.1933594 309.5,50 Z M309.5,50" style="fill:none;stroke:rgb(85,142,213)" clip-path="url(#clip13)" />
<clipPath id="clip14"><path d="M299,44 L312,44 L312,57 L299,57 L299,44 Z" /></clipPath>
<path d="M303,50 L307,50" style="fill:none;stroke:rgb(150,160,200)" clip-path="url(#clip14)" />
<clipPath id="clip15"><path d="M318,19 L583,19 L583,53 L318,53 L318,19 Z" /></clipPath>
<path d="M321,50 L579,50 Z M321,50" style="fill:none;stroke:rgb(85,142,213);stroke-width:3" clip-path="url(#clip15)" />
<text x="332" y="38" style="font:10px Open Sans">"&lt;path relatif du .key&gt;": "&lt;password&gt;"</text>
<clipPath id="clip16"><path d="M581,14 L618,14 L618,58 L581,58 L581,14 Z" /></clipPath>
<path d="M587,20 L599.5,20 L599.5,52 L587,52 M599.5,36 L612,36" style="fill:none;stroke:rgb(195,214,155);stroke-width:5" clip-path="url(#clip16)" />
<clipPath id="clip17"><path d="M616,21 L1125,21 L1125,52 L616,52 L616,21 Z" /></clipPath>
<path d="M622,22 C619.2382813,22 617,24.2382813 617,27 L617,45 C617,47.7617188 619.2382813,50 622,50 L1118,50 C1120.7617188,50 1123,47.7617188 1123,45 L1123,27 C1123,24.2382813 1120.7617188,22 1118,22 Z M622,22" style="fill:rgb(195,214,155);stroke:none" clip-path="url(#clip17)" />
<text x="627" y="39" style="font:10px Dialog">Vault stockant les mots de passe d'accès à tous les .key du dossier /cert</text>
<clipPath id="clip18"><path d="M192,103 L1432,103 L1432,315 L192,315 Z M198,192 C195.2382813,192 193,194.2382813 193,197 L193,230 C193,232.7617188 195.2382813,235 198,235 L267,235 C269.7617188,235 272,232.7617188 272,230 L272,197 C272,194.2382813 269.7617188,192 267,192 Z M198,192 Z M198,192" /></clipPath>
<path d="M285,213.7617188 C287.2226563,173.9199219 290.5546875,154 295,154" style="fill:none;stroke:rgb(85,142,213)" clip-path="url(#clip18)" />
<clipPath id="clip19"><path d="M192,103 L1432,103 L1432,315 L192,315 Z M198,192 C195.2382813,192 193,194.2382813 193,197 L193,230 C193,232.7617188 195.2382813,235 198,235 L267,235 C269.7617188,235 272,232.7617188 272,230 L272,197 C272,194.2382813 269.7617188,192 267,192 Z M198,192 Z M198,192" /></clipPath>
<path d="M285,213.7617188 C287.2226563,254.5878906 290.5546875,275 295,275" style="fill:none;stroke:rgb(85,142,213)" clip-path="url(#clip19)" />
<clipPath id="clip20"><path d="M191,102 L1433,102 L1433,316 L191,316 L191,102 Z" /></clipPath>
<path d="M272,213.6972656 L285,213.7617188" style="fill:none;stroke:rgb(85,142,213)" clip-path="url(#clip20)" />
<clipPath id="clip21"><path d="M191,190 L275,190 L275,238 L191,238 L191,190 Z" /></clipPath>
<path d="M198,192 C195.2382813,192 193,194.2382813 193,197 L193,230 C193,232.7617188 195.2382813,235 198,235 L267,235 C269.7617188,235 272,232.7617188 272,230 L272,197 C272,194.2382813 269.7617188,192 267,192 Z M198,192" style="fill:rgb(220,230,242);stroke:none" clip-path="url(#clip21)" />
<clipPath id="clip22"><path d="M191,190 L275,190 L275,238 L191,238 L191,190 Z" /></clipPath>
<path d="M198,192 C195.2382813,192 193,194.2382813 193,197 L193,230 C193,232.7617188 195.2382813,235 198,235 L267,235 C269.7617188,235 272,232.7617188 272,230 L272,197 C272,194.2382813 269.7617188,192 267,192 Z M198,192" style="fill:none;stroke:rgb(85,142,213);stroke-width:2" clip-path="url(#clip22)" />
<text x="207" y="216" style="font:13px Open Sans">server</text>
<clipPath id="clip23"><path d="M273,208 L286,208 L286,221 L273,221 L273,208 Z" /></clipPath>
<path d="M283.5,214 C283.5,212.8066406 283.0253906,211.6621094 282.1816406,210.8183594 C281.3378906,209.9746094 280.1933594,209.5 279,209.5 C277.8066406,209.5 276.6621094,209.9746094 275.8183594,210.8183594 C274.9746094,211.6621094 274.5,212.8066406 274.5,214 C274.5,215.1933594 274.9746094,216.3378906 275.8183594,217.1816406 C276.6621094,218.0253906 277.8066406,218.5 279,218.5 C280.1933594,218.5 281.3378906,218.0253906 282.1816406,217.1816406 C283.0253906,216.3378906 283.5,215.1933594 283.5,214 Z M283.5,214" style="fill:rgb(250,250,250);stroke:none" clip-path="url(#clip23)" />
<clipPath id="clip24"><path d="M273,208 L286,208 L286,221 L273,221 L273,208 Z" /></clipPath>
<path d="M283.5,214 C283.5,212.8066406 283.0253906,211.6621094 282.1816406,210.8183594 C281.3378906,209.9746094 280.1933594,209.5 279,209.5 C277.8066406,209.5 276.6621094,209.9746094 275.8183594,210.8183594 C274.9746094,211.6621094 274.5,212.8066406 274.5,214 C274.5,215.1933594 274.9746094,216.3378906 275.8183594,217.1816406 C276.6621094,218.0253906 277.8066406,218.5 279,218.5 C280.1933594,218.5 281.3378906,218.0253906 282.1816406,217.1816406 C283.0253906,216.3378906 283.5,215.1933594 283.5,214 Z M283.5,214" style="fill:none;stroke:rgb(85,142,213)" clip-path="url(#clip24)" />
<clipPath id="clip25"><path d="M273,208 L286,208 L286,221 L273,221 L273,208 Z" /></clipPath>
<path d="M277,214 L281,214" style="fill:none;stroke:rgb(150,160,200)" clip-path="url(#clip25)" />
<clipPath id="clip26"><path d="M293,108 L428,108 L428,173 L293,173 Z M295,126 L295,153 L332,153 L332,126 Z M295,126 Z M295,126" /></clipPath>
<path d="M345,154 C347.4453125,143.3339844 351.1113281,138 356,138" style="fill:none;stroke:rgb(85,142,213)" clip-path="url(#clip26)" />
<clipPath id="clip27"><path d="M293,108 L428,108 L428,173 L293,173 Z M295,126 L295,153 L332,153 L332,126 Z M295,126 Z M295,126" /></clipPath>
<path d="M345,154 C347.4453125,165.3339844 351.1113281,171 356,171" style="fill:none;stroke:rgb(85,142,213)" clip-path="url(#clip27)" />
<clipPath id="clip28"><path d="M292,107 L429,107 L429,174 L292,174 L292,107 Z" /></clipPath>
<path d="M332,154 L345,154" style="fill:none;stroke:rgb(85,142,213)" clip-path="url(#clip28)" />
<clipPath id="clip29"><path d="M292,123 L336,123 L336,157 L292,157 L292,123 Z" /></clipPath>
<path d="M295,154 L332,154 Z M295,154" style="fill:none;stroke:rgb(85,142,213);stroke-width:3" clip-path="url(#clip29)" />
<text x="306" y="142" style="font:10px Open Sans">ca</text>
<clipPath id="clip30"><path d="M334,134 L347,134 L347,147 L334,147 L334,134 Z" /></clipPath>
<path d="M344.5,140 C344.5,138.8066406 344.0253906,137.6621094 343.1816406,136.8183594 C342.3378906,135.9746094 341.1933594,135.5 340,135.5 C338.8066406,135.5 337.6621094,135.9746094 336.8183594,136.8183594 C335.9746094,137.6621094 335.5,138.8066406 335.5,140 C335.5,141.1933594 335.9746094,142.3378906 336.8183594,143.1816406 C337.6621094,144.0253906 338.8066406,144.5 340,144.5 C341.1933594,144.5 342.3378906,144.0253906 343.1816406,143.1816406 C344.0253906,142.3378906 344.5,141.1933594 344.5,140 Z M344.5,140" style="fill:rgb(250,250,250);stroke:none" clip-path="url(#clip30)" />
<clipPath id="clip31"><path d="M334,134 L347,134 L347,147 L334,147 L334,134 Z" /></clipPath>
<path d="M344.5,140 C344.5,138.8066406 344.0253906,137.6621094 343.1816406,136.8183594 C342.3378906,135.9746094 341.1933594,135.5 340,135.5 C338.8066406,135.5 337.6621094,135.9746094 336.8183594,136.8183594 C335.9746094,137.6621094 335.5,138.8066406 335.5,140 C335.5,141.1933594 335.9746094,142.3378906 336.8183594,143.1816406 C337.6621094,144.0253906 338.8066406,144.5 340,144.5 C341.1933594,144.5 342.3378906,144.0253906 343.1816406,143.1816406 C344.0253906,142.3378906 344.5,141.1933594 344.5,140 Z M344.5,140" style="fill:none;stroke:rgb(85,142,213)" clip-path="url(#clip31)" />
<clipPath id="clip32"><path d="M334,134 L347,134 L347,147 L334,147 L334,134 Z" /></clipPath>
<path d="M338,140 L342,140" style="fill:none;stroke:rgb(150,160,200)" clip-path="url(#clip32)" />
<clipPath id="clip33"><path d="M353,107 L429,107 L429,141 L353,141 L353,107 Z" /></clipPath>
<path d="M356,138 L425,138 Z M356,138" style="fill:none;stroke:rgb(85,142,213);stroke-width:3" clip-path="url(#clip33)" />
<text x="367" y="126" style="font:10px Open Sans">&lt;.*&gt;.crt</text>
<clipPath id="clip34"><path d="M353,140 L394,140 L394,174 L353,174 L353,140 Z" /></clipPath>
<path d="M356,171 L390,171 Z M356,171" style="fill:none;stroke:rgb(85,142,213);stroke-width:3" clip-path="url(#clip34)" />
<text x="367" y="159" style="font:10px Open Sans">...</text>
<clipPath id="clip35"><path d="M293,174 L1432,174 L1432,315 L293,315 Z M295,247 L295,274 L352,274 L352,247 Z M295,247 Z M295,247" /></clipPath>
<path d="M365,275 C367.4453125,253 371.1113281,242 376,242" style="fill:none;stroke:rgb(85,142,213)" clip-path="url(#clip35)" />
<clipPath id="clip36"><path d="M293,174 L1432,174 L1432,315 L293,315 Z M295,247 L295,274 L352,274 L352,247 Z M295,247 Z M295,247" /></clipPath>
<path d="M365,275 C367.4453125,297 371.1113281,308 376,308" style="fill:none;stroke:rgb(85,142,213)" clip-path="url(#clip36)" />
<clipPath id="clip37"><path d="M292,173 L1433,173 L1433,316 L292,316 L292,173 Z" /></clipPath>
<path d="M352,275 L365,275" style="fill:none;stroke:rgb(85,142,213)" clip-path="url(#clip37)" />
<clipPath id="clip38"><path d="M292,244 L356,244 L356,278 L292,278 L292,244 Z" /></clipPath>
<path d="M295,275 L352,275 Z M295,275" style="fill:none;stroke:rgb(85,142,213);stroke-width:3" clip-path="url(#clip38)" />
<text x="306" y="263" style="font:10px Open Sans">hosts</text>
<clipPath id="clip39"><path d="M354,255 L367,255 L367,268 L354,268 L354,255 Z" /></clipPath>
<path d="M364.5,261 C364.5,259.8066406 364.0253906,258.6621094 363.1816406,257.8183594 C362.3378906,256.9746094 361.1933594,256.5 360,256.5 C358.8066406,256.5 357.6621094,256.9746094 356.8183594,257.8183594 C355.9746094,258.6621094 355.5,259.8066406 355.5,261 C355.5,262.1933594 355.9746094,263.3378906 356.8183594,264.1816406 C357.6621094,265.0253906 358.8066406,265.5 360,265.5 C361.1933594,265.5 362.3378906,265.0253906 363.1816406,264.1816406 C364.0253906,263.3378906 364.5,262.1933594 364.5,261 Z M364.5,261" style="fill:rgb(250,250,250);stroke:none" clip-path="url(#clip39)" />
<clipPath id="clip40"><path d="M354,255 L367,255 L367,268 L354,268 L354,255 Z" /></clipPath>
<path d="M364.5,261 C364.5,259.8066406 364.0253906,258.6621094 363.1816406,257.8183594 C362.3378906,256.9746094 361.1933594,256.5 360,256.5 C358.8066406,256.5 357.6621094,256.9746094 356.8183594,257.8183594 C355.9746094,258.6621094 355.5,259.8066406 355.5,261 C355.5,262.1933594 355.9746094,263.3378906 356.8183594,264.1816406 C357.6621094,265.0253906 358.8066406,265.5 360,265.5 C361.1933594,265.5 362.3378906,265.0253906 363.1816406,264.1816406 C364.0253906,263.3378906 364.5,262.1933594 364.5,261 Z M364.5,261" style="fill:none;stroke:rgb(85,142,213)" clip-path="url(#clip40)" />
<clipPath id="clip41"><path d="M354,255 L367,255 L367,268 L354,268 L354,255 Z" /></clipPath>
<path d="M358,261 L362,261" style="fill:none;stroke:rgb(150,160,200)" clip-path="url(#clip41)" />
<clipPath id="clip42"><path d="M374,179 L674,179 L674,277 L374,277 Z M376,214 L376,241 L477,241 L477,214 Z M376,214 Z M376,214" /></clipPath>
<path d="M490,242 C492.4453125,220 496.1113281,209 501,209" style="fill:none;stroke:rgb(85,142,213)" clip-path="url(#clip42)" />
<clipPath id="clip43"><path d="M374,179 L674,179 L674,277 L374,277 Z M376,214 L376,241 L477,241 L477,214 Z M376,214 Z M376,214" /></clipPath>
<path d="M490,242 C492.4453125,242 496.1113281,242 501,242" style="fill:none;stroke:rgb(85,142,213)" clip-path="url(#clip43)" />
<clipPath id="clip44"><path d="M374,179 L674,179 L674,277 L374,277 Z M376,214 L376,241 L477,241 L477,214 Z M376,214 Z M376,214" /></clipPath>
<path d="M490,242 C492.4453125,264 496.1113281,275 501,275" style="fill:none;stroke:rgb(85,142,213)" clip-path="url(#clip44)" />
<clipPath id="clip45"><path d="M373,178 L675,178 L675,278 L373,278 L373,178 Z" /></clipPath>
<path d="M477,242 L490,242" style="fill:none;stroke:rgb(85,142,213)" clip-path="url(#clip45)" />
<clipPath id="clip46"><path d="M373,211 L481,211 L481,245 L373,245 L373,211 Z" /></clipPath>
<path d="M376,242 L477,242 Z M376,242" style="fill:none;stroke:rgb(85,142,213);stroke-width:3" clip-path="url(#clip46)" />
<text x="387" y="230" style="font:10px Open Sans">&lt;hostname&gt;</text>
<clipPath id="clip47"><path d="M479,222 L492,222 L492,235 L479,235 L479,222 Z" /></clipPath>
<path d="M489.5,228 C489.5,226.8066406 489.0253906,225.6621094 488.1816406,224.8183594 C487.3378906,223.9746094 486.1933594,223.5 485,223.5 C483.8066406,223.5 482.6621094,223.9746094 481.8183594,224.8183594 C480.9746094,225.6621094 480.5,226.8066406 480.5,228 C480.5,229.1933594 480.9746094,230.3378906 481.8183594,231.1816406 C482.6621094,232.0253906 483.8066406,232.5 485,232.5 C486.1933594,232.5 487.3378906,232.0253906 488.1816406,231.1816406 C489.0253906,230.3378906 489.5,229.1933594 489.5,228 Z M489.5,228" style="fill:rgb(250,250,250);stroke:none" clip-path="url(#clip47)" />
<clipPath id="clip48"><path d="M479,222 L492,222 L492,235 L479,235 L479,222 Z" /></clipPath>
<path d="M489.5,228 C489.5,226.8066406 489.0253906,225.6621094 488.1816406,224.8183594 C487.3378906,223.9746094 486.1933594,223.5 485,223.5 C483.8066406,223.5 482.6621094,223.9746094 481.8183594,224.8183594 C480.9746094,225.6621094 480.5,226.8066406 480.5,228 C480.5,229.1933594 480.9746094,230.3378906 481.8183594,231.1816406 C482.6621094,232.0253906 483.8066406,232.5 485,232.5 C486.1933594,232.5 487.3378906,232.0253906 488.1816406,231.1816406 C489.0253906,230.3378906 489.5,229.1933594 489.5,228 Z M489.5,228" style="fill:none;stroke:rgb(85,142,213)" clip-path="url(#clip48)" />
<clipPath id="clip49"><path d="M479,222 L492,222 L492,235 L479,235 L479,222 Z" /></clipPath>
<path d="M483,228 L487,228" style="fill:none;stroke:rgb(150,160,200)" clip-path="url(#clip49)" />
<clipPath id="clip50"><path d="M498,178 L671,178 L671,212 L498,212 L498,178 Z" /></clipPath>
<path d="M501,209 L667,209 Z M501,209" style="fill:none;stroke:rgb(85,142,213);stroke-width:3" clip-path="url(#clip50)" />
<text x="512" y="197" style="font:10px Open Sans">&lt;composant vitam&gt;.crt</text>
<clipPath id="clip51"><path d="M498,211 L675,211 L675,245 L498,245 L498,211 Z" /></clipPath>
<path d="M501,242 L671,242 Z M501,242" style="fill:none;stroke:rgb(85,142,213);stroke-width:3" clip-path="url(#clip51)" />
<text x="512" y="230" style="font:10px Open Sans">&lt;composant vitam&gt;.key</text>
<clipPath id="clip52"><path d="M498,244 L539,244 L539,278 L498,278 L498,244 Z" /></clipPath>
<path d="M501,275 L535,275 Z M501,275" style="fill:none;stroke:rgb(85,142,213);stroke-width:3" clip-path="url(#clip52)" />
<text x="512" y="263" style="font:10px Open Sans">...</text>
<clipPath id="clip53"><path d="M373,277 L414,277 L414,311 L373,311 L373,277 Z" /></clipPath>
<path d="M376,308 L410,308 Z M376,308" style="fill:none;stroke:rgb(85,142,213);stroke-width:3" clip-path="url(#clip53)" />
<text x="387" y="296" style="font:10px Open Sans">...</text>
<clipPath id="clip54"><path d="M673,173 L710,173 L710,316 L673,316 L673,173 Z" /></clipPath>
<path d="M679,179 L691.5,179 L691.5,310 L679,310 M691.5,244 L704,244" style="fill:none;stroke:rgb(195,214,155);stroke-width:5" clip-path="url(#clip54)" />
<clipPath id="clip55"><path d="M708,221 L1433,221 L1433,268 L708,268 L708,221 Z" /></clipPath>
<path d="M714,222 C711.2382813,222 709,224.2382813 709,227 L709,261 C709,263.7617188 711.2382813,266 714,266 L1426,266 C1428.7617188,266 1431,263.7617188 1431,261 L1431,227 C1431,224.2382813 1428.7617188,222 1426,222 Z M714,222" style="fill:rgb(195,214,155);stroke:none" clip-path="url(#clip55)" />
<text x="719" y="239" style="font:10px Dialog">Certificat &amp; clé privée pour chaque &lt;hostname&gt; déclaré dans le fichier d'environment.</text>
<text x="719" y="255" style="font:10px Dialog">Les &lt;composants_vitam&gt; nécessitant un certificat serveur sont: ingest-external, access-external, offer.</text>
<clipPath id="clip56"><path d="M427,102 L464,102 L464,179 L427,179 L427,102 Z" /></clipPath>
<path d="M433,108 L445.5,108 L445.5,173 L433,173 M445.5,140 L458,140" style="fill:none;stroke:rgb(195,214,155);stroke-width:5" clip-path="url(#clip56)" />
<clipPath id="clip57"><path d="M462,117 L951,117 L951,164 L462,164 L462,117 Z" /></clipPath>
<path d="M468,118 C465.2382813,118 463,120.2382813 463,123 L463,157 C463,159.7617188 465.2382813,162 468,162 L944,162 C946.7617188,162 949,159.7617188 949,157 L949,123 C949,120.2382813 946.7617188,118 944,118 Z M468,118" style="fill:rgb(195,214,155);stroke:none" clip-path="url(#clip57)" />
<text x="473" y="135" style="font:10px Dialog">Clés publiques des CA des serveurs VITAM (root et/ou intermediate)</text>
<text x="473" y="151" style="font:10px Dialog">Clés publiques des CA des APIs de stockage externes (SWIFT/S3)</text>
<clipPath id="clip58"><path d="M210,345 L1296,345 L1296,623 L210,623 Z M216,442 C213.2382813,442 211,444.2382813 211,447 L211,480 C211,482.7617188 213.2382813,485 216,485 L350,485 C352.7617188,485 355,482.7617188 355,480 L355,447 C355,444.2382813 352.7617188,442 350,442 Z M216,442 Z M216,442" /></clipPath>
<path d="M368,463.9257813 C370.2226563,418.6425781 373.5546875,396 378,396" style="fill:none;stroke:rgb(85,142,213)" clip-path="url(#clip58)" />
<clipPath id="clip59"><path d="M210,345 L1296,345 L1296,623 L210,623 Z M216,442 C213.2382813,442 211,444.2382813 211,447 L211,480 C211,482.7617188 213.2382813,485 216,485 L350,485 C352.7617188,485 355,482.7617188 355,480 L355,447 C355,444.2382813 352.7617188,442 350,442 Z M216,442 Z M216,442" /></clipPath>
<path d="M368,463.9257813 C370.2226563,509.9746094 373.5546875,533 378,533" style="fill:none;stroke:rgb(85,142,213)" clip-path="url(#clip59)" />
<clipPath id="clip60"><path d="M209,344 L1297,344 L1297,624 L209,624 L209,344 Z" /></clipPath>
<path d="M355,463.859375 L368,463.9257813" style="fill:none;stroke:rgb(85,142,213)" clip-path="url(#clip60)" />
<clipPath id="clip61"><path d="M209,440 L358,440 L358,488 L209,488 L209,440 Z" /></clipPath>
<path d="M216,442 C213.2382813,442 211,444.2382813 211,447 L211,480 C211,482.7617188 213.2382813,485 216,485 L350,485 C352.7617188,485 355,482.7617188 355,480 L355,447 C355,444.2382813 352.7617188,442 350,442 Z M216,442" style="fill:rgb(220,230,242);stroke:none" clip-path="url(#clip61)" />
<clipPath id="clip62"><path d="M209,440 L358,440 L358,488 L209,488 L209,440 Z" /></clipPath>
<path d="M216,442 C213.2382813,442 211,444.2382813 211,447 L211,480 C211,482.7617188 213.2382813,485 216,485 L350,485 C352.7617188,485 355,482.7617188 355,480 L355,447 C355,444.2382813 352.7617188,442 350,442 Z M216,442" style="fill:none;stroke:rgb(85,142,213);stroke-width:2" clip-path="url(#clip62)" />
<text x="225" y="466" style="font:13px Open Sans">client-external</text>
<clipPath id="clip63"><path d="M356,458 L369,458 L369,471 L356,471 L356,458 Z" /></clipPath>
<path d="M366.5,464 C366.5,462.8066406 366.0253906,461.6621094 365.1816406,460.8183594 C364.3378906,459.9746094 363.1933594,459.5 362,459.5 C360.8066406,459.5 359.6621094,459.9746094 358.8183594,460.8183594 C357.9746094,461.6621094 357.5,462.8066406 357.5,464 C357.5,465.1933594 357.9746094,466.3378906 358.8183594,467.1816406 C359.6621094,468.0253906 360.8066406,468.5 362,468.5 C363.1933594,468.5 364.3378906,468.0253906 365.1816406,467.1816406 C366.0253906,466.3378906 366.5,465.1933594 366.5,464 Z M366.5,464" style="fill:rgb(250,250,250);stroke:none" clip-path="url(#clip63)" />
<clipPath id="clip64"><path d="M356,458 L369,458 L369,471 L356,471 L356,458 Z" /></clipPath>
<path d="M366.5,464 C366.5,462.8066406 366.0253906,461.6621094 365.1816406,460.8183594 C364.3378906,459.9746094 363.1933594,459.5 362,459.5 C360.8066406,459.5 359.6621094,459.9746094 358.8183594,460.8183594 C357.9746094,461.6621094 357.5,462.8066406 357.5,464 C357.5,465.1933594 357.9746094,466.3378906 358.8183594,467.1816406 C359.6621094,468.0253906 360.8066406,468.5 362,468.5 C363.1933594,468.5 364.3378906,468.0253906 365.1816406,467.1816406 C366.0253906,466.3378906 366.5,465.1933594 366.5,464 Z M366.5,464" style="fill:none;stroke:rgb(85,142,213)" clip-path="url(#clip64)" />
<clipPath id="clip65"><path d="M356,458 L369,458 L369,471 L356,471 L356,458 Z" /></clipPath>
<path d="M360,464 L364,464" style="fill:none;stroke:rgb(150,160,200)" clip-path="url(#clip65)" />
<clipPath id="clip66"><path d="M376,350 L511,350 L511,415 L376,415 Z M378,368 L378,395 L415,395 L415,368 Z M378,368 Z M378,368" /></clipPath>
<path d="M428,396 C430.4453125,385.3339844 434.1113281,380 439,380" style="fill:none;stroke:rgb(85,142,213)" clip-path="url(#clip66)" />
<clipPath id="clip67"><path d="M376,350 L511,350 L511,415 L376,415 Z M378,368 L378,395 L415,395 L415,368 Z M378,368 Z M378,368" /></clipPath>
<path d="M428,396 C430.4453125,407.3339844 434.1113281,413 439,413" style="fill:none;stroke:rgb(85,142,213)" clip-path="url(#clip67)" />
<clipPath id="clip68"><path d="M375,349 L512,349 L512,416 L375,416 L375,349 Z" /></clipPath>
<path d="M415,396 L428,396" style="fill:none;stroke:rgb(85,142,213)" clip-path="url(#clip68)" />
<clipPath id="clip69"><path d="M375,365 L419,365 L419,399 L375,399 L375,365 Z" /></clipPath>
<path d="M378,396 L415,396 Z M378,396" style="fill:none;stroke:rgb(85,142,213);stroke-width:3" clip-path="url(#clip69)" />
<text x="389" y="384" style="font:10px Open Sans">ca</text>
<clipPath id="clip70"><path d="M417,376 L430,376 L430,389 L417,389 L417,376 Z" /></clipPath>
<path d="M427.5,382 C427.5,380.8066406 427.0253906,379.6621094 426.1816406,378.8183594 C425.3378906,377.9746094 424.1933594,377.5 423,377.5 C421.8066406,377.5 420.6621094,377.9746094 419.8183594,378.8183594 C418.9746094,379.6621094 418.5,380.8066406 418.5,382 C418.5,383.1933594 418.9746094,384.3378906 419.8183594,385.1816406 C420.6621094,386.0253906 421.8066406,386.5 423,386.5 C424.1933594,386.5 425.3378906,386.0253906 426.1816406,385.1816406 C427.0253906,384.3378906 427.5,383.1933594 427.5,382 Z M427.5,382" style="fill:rgb(250,250,250);stroke:none" clip-path="url(#clip70)" />
<clipPath id="clip71"><path d="M417,376 L430,376 L430,389 L417,389 L417,376 Z" /></clipPath>
<path d="M427.5,382 C427.5,380.8066406 427.0253906,379.6621094 426.1816406,378.8183594 C425.3378906,377.9746094 424.1933594,377.5 423,377.5 C421.8066406,377.5 420.6621094,377.9746094 419.8183594,378.8183594 C418.9746094,379.6621094 418.5,380.8066406 418.5,382 C418.5,383.1933594 418.9746094,384.3378906 419.8183594,385.1816406 C420.6621094,386.0253906 421.8066406,386.5 423,386.5 C424.1933594,386.5 425.3378906,386.0253906 426.1816406,385.1816406 C427.0253906,384.3378906 427.5,383.1933594 427.5,382 Z M427.5,382" style="fill:none;stroke:rgb(85,142,213)" clip-path="url(#clip71)" />
<clipPath id="clip72"><path d="M417,376 L430,376 L430,389 L417,389 L417,376 Z" /></clipPath>
<path d="M421,382 L425,382" style="fill:none;stroke:rgb(150,160,200)" clip-path="url(#clip72)" />
<clipPath id="clip73"><path d="M436,349 L512,349 L512,383 L436,383 L436,349 Z" /></clipPath>
<path d="M439,380 L508,380 Z M439,380" style="fill:none;stroke:rgb(85,142,213);stroke-width:3" clip-path="url(#clip73)" />
<text x="450" y="368" style="font:10px Open Sans">&lt;.*&gt;.crt</text>
<clipPath id="clip74"><path d="M436,382 L477,382 L477,416 L436,416 L436,382 Z" /></clipPath>
<path d="M439,413 L473,413 Z M439,413" style="fill:none;stroke:rgb(85,142,213);stroke-width:3" clip-path="url(#clip74)" />
<text x="450" y="401" style="font:10px Open Sans">...</text>
<clipPath id="clip75"><path d="M376,416 L1296,416 L1296,623 L376,623 Z M378,505 L378,532 L441,532 L441,505 Z M378,505 Z M378,505" /></clipPath>
<path d="M454,533 C456.4453125,489 460.1113281,467 465,467" style="fill:none;stroke:rgb(85,142,213)" clip-path="url(#clip75)" />
<clipPath id="clip76"><path d="M376,416 L1296,416 L1296,623 L376,623 Z M378,505 L378,532 L441,532 L441,505 Z M378,505 Z M378,505" /></clipPath>
<path d="M454,533 C456.4453125,533 460.1113281,533 465,533" style="fill:none;stroke:rgb(85,142,213)" clip-path="url(#clip76)" />
<clipPath id="clip77"><path d="M376,416 L1296,416 L1296,623 L376,623 Z M378,505 L378,532 L441,532 L441,505 Z M378,505 Z M378,505" /></clipPath>
<path d="M454,533 C456.4453125,577 460.1113281,599 465,599" style="fill:none;stroke:rgb(85,142,213)" clip-path="url(#clip77)" />
<clipPath id="clip78"><path d="M375,415 L1297,415 L1297,624 L375,624 L375,415 Z" /></clipPath>
<path d="M441,533 L454,533" style="fill:none;stroke:rgb(85,142,213)" clip-path="url(#clip78)" />
<clipPath id="clip79"><path d="M375,502 L445,502 L445,536 L375,536 L375,502 Z" /></clipPath>
<path d="M378,533 L441,533 Z M378,533" style="fill:none;stroke:rgb(85,142,213);stroke-width:3" clip-path="url(#clip79)" />
<text x="389" y="520" style="font:10px Open Sans">clients</text>
<clipPath id="clip80"><path d="M443,513 L456,513 L456,526 L443,526 L443,513 Z" /></clipPath>
<path d="M453.5,519 C453.5,517.8066406 453.0253906,516.6621094 452.1816406,515.8183594 C451.3378906,514.9746094 450.1933594,514.5 449,514.5 C447.8066406,514.5 446.6621094,514.9746094 445.8183594,515.8183594 C444.9746094,516.6621094 444.5,517.8066406 444.5,519 C444.5,520.1933594 444.9746094,521.3378906 445.8183594,522.1816406 C446.6621094,523.0253906 447.8066406,523.5 449,523.5 C450.1933594,523.5 451.3378906,523.0253906 452.1816406,522.1816406 C453.0253906,521.3378906 453.5,520.1933594 453.5,519 Z M453.5,519" style="fill:rgb(250,250,250);stroke:none" clip-path="url(#clip80)" />
<clipPath id="clip81"><path d="M443,513 L456,513 L456,526 L443,526 L443,513 Z" /></clipPath>
<path d="M453.5,519 C453.5,517.8066406 453.0253906,516.6621094 452.1816406,515.8183594 C451.3378906,514.9746094 450.1933594,514.5 449,514.5 C447.8066406,514.5 446.6621094,514.9746094 445.8183594,515.8183594 C444.9746094,516.6621094 444.5,517.8066406 444.5,519 C444.5,520.1933594 444.9746094,521.3378906 445.8183594,522.1816406 C446.6621094,523.0253906 447.8066406,523.5 449,523.5 C450.1933594,523.5 451.3378906,523.0253906 452.1816406,522.1816406 C453.0253906,521.3378906 453.5,520.1933594 453.5,519 Z M453.5,519" style="fill:none;stroke:rgb(85,142,213)" clip-path="url(#clip81)" />
<clipPath id="clip82"><path d="M443,513 L456,513 L456,526 L443,526 L443,513 Z" /></clipPath>
<path d="M447,519 L451,519" style="fill:none;stroke:rgb(150,160,200)" clip-path="url(#clip82)" />
<clipPath id="clip83"><path d="M463,421 L635,421 L635,486 L463,486 Z M465,439 L465,466 L539,466 L539,439 Z M465,439 Z M465,439" /></clipPath>
<path d="M552,467 C554.4453125,456.3339844 558.1113281,451 563,451" style="fill:none;stroke:rgb(85,142,213)" clip-path="url(#clip83)" />
<clipPath id="clip84"><path d="M463,421 L635,421 L635,486 L463,486 Z M465,439 L465,466 L539,466 L539,439 Z M465,439 Z M465,439" /></clipPath>
<path d="M552,467 C554.4453125,478.3339844 558.1113281,484 563,484" style="fill:none;stroke:rgb(85,142,213)" clip-path="url(#clip84)" />
<clipPath id="clip85"><path d="M462,420 L636,420 L636,487 L462,487 L462,420 Z" /></clipPath>
<path d="M539,467 L552,467" style="fill:none;stroke:rgb(85,142,213)" clip-path="url(#clip85)" />
<clipPath id="clip86"><path d="M462,436 L543,436 L543,470 L462,470 L462,436 Z" /></clipPath>
<path d="M465,467 L539,467 Z M465,467" style="fill:none;stroke:rgb(85,142,213);stroke-width:3" clip-path="url(#clip86)" />
<text x="476" y="455" style="font:10px Open Sans">external</text>
<clipPath id="clip87"><path d="M541,447 L554,447 L554,460 L541,460 L541,447 Z" /></clipPath>
<path d="M551.5,453 C551.5,451.8066406 551.0253906,450.6621094 550.1816406,449.8183594 C549.3378906,448.9746094 548.1933594,448.5 547,448.5 C545.8066406,448.5 544.6621094,448.9746094 543.8183594,449.8183594 C542.9746094,450.6621094 542.5,451.8066406 542.5,453 C542.5,454.1933594 542.9746094,455.3378906 543.8183594,456.1816406 C544.6621094,457.0253906 545.8066406,457.5 547,457.5 C548.1933594,457.5 549.3378906,457.0253906 550.1816406,456.1816406 C551.0253906,455.3378906 551.5,454.1933594 551.5,453 Z M551.5,453" style="fill:rgb(250,250,250);stroke:none" clip-path="url(#clip87)" />
<clipPath id="clip88"><path d="M541,447 L554,447 L554,460 L541,460 L541,447 Z" /></clipPath>
<path d="M551.5,453 C551.5,451.8066406 551.0253906,450.6621094 550.1816406,449.8183594 C549.3378906,448.9746094 548.1933594,448.5 547,448.5 C545.8066406,448.5 544.6621094,448.9746094 543.8183594,449.8183594 C542.9746094,450.6621094 542.5,451.8066406 542.5,453 C542.5,454.1933594 542.9746094,455.3378906 543.8183594,456.1816406 C544.6621094,457.0253906 545.8066406,457.5 547,457.5 C548.1933594,457.5 549.3378906,457.0253906 550.1816406,456.1816406 C551.0253906,455.3378906 551.5,454.1933594 551.5,453 Z M551.5,453" style="fill:none;stroke:rgb(85,142,213)" clip-path="url(#clip88)" />
<clipPath id="clip89"><path d="M541,447 L554,447 L554,460 L541,460 L541,447 Z" /></clipPath>
<path d="M545,453 L549,453" style="fill:none;stroke:rgb(150,160,200)" clip-path="url(#clip89)" />
<clipPath id="clip90"><path d="M560,420 L636,420 L636,454 L560,454 L560,420 Z" /></clipPath>
<path d="M563,451 L632,451 Z M563,451" style="fill:none;stroke:rgb(85,142,213);stroke-width:3" clip-path="url(#clip90)" />
<text x="574" y="439" style="font:10px Open Sans">&lt;.*&gt;.crt</text>
<clipPath id="clip91"><path d="M560,453 L601,453 L601,487 L560,487 L560,453 Z" /></clipPath>
<path d="M563,484 L597,484 Z M563,484" style="fill:none;stroke:rgb(85,142,213);stroke-width:3" clip-path="url(#clip91)" />
<text x="574" y="472" style="font:10px Open Sans">...</text>
<clipPath id="clip92"><path d="M463,487 L654,487 L654,552 L463,552 Z M465,505 L465,532 L553,532 L553,505 Z M465,505 Z M465,505" /></clipPath>
<path d="M566,533 C568.4453125,522.3339844 572.1113281,517 577,517" style="fill:none;stroke:rgb(85,142,213)" clip-path="url(#clip92)" />
<clipPath id="clip93"><path d="M463,487 L654,487 L654,552 L463,552 Z M465,505 L465,532 L553,532 L553,505 Z M465,505 Z M465,505" /></clipPath>
<path d="M566,533 C568.4453125,544.3339844 572.1113281,550 577,550" style="fill:none;stroke:rgb(85,142,213)" clip-path="url(#clip93)" />
<clipPath id="clip94"><path d="M462,486 L655,486 L655,553 L462,553 L462,486 Z" /></clipPath>
<path d="M553,533 L566,533" style="fill:none;stroke:rgb(85,142,213)" clip-path="url(#clip94)" />
<clipPath id="clip95"><path d="M462,502 L557,502 L557,536 L462,536 L462,502 Z" /></clipPath>
<path d="M465,533 L553,533 Z M465,533" style="fill:none;stroke:rgb(85,142,213);stroke-width:3" clip-path="url(#clip95)" />
<text x="476" y="520" style="font:10px Open Sans">ihm-demo</text>
<clipPath id="clip96"><path d="M555,513 L568,513 L568,526 L555,526 L555,513 Z" /></clipPath>
<path d="M565.5,519 C565.5,517.8066406 565.0253906,516.6621094 564.1816406,515.8183594 C563.3378906,514.9746094 562.1933594,514.5 561,514.5 C559.8066406,514.5 558.6621094,514.9746094 557.8183594,515.8183594 C556.9746094,516.6621094 556.5,517.8066406 556.5,519 C556.5,520.1933594 556.9746094,521.3378906 557.8183594,522.1816406 C558.6621094,523.0253906 559.8066406,523.5 561,523.5 C562.1933594,523.5 563.3378906,523.0253906 564.1816406,522.1816406 C565.0253906,521.3378906 565.5,520.1933594 565.5,519 Z M565.5,519" style="fill:rgb(250,250,250);stroke:none" clip-path="url(#clip96)" />
<clipPath id="clip97"><path d="M555,513 L568,513 L568,526 L555,526 L555,513 Z" /></clipPath>
<path d="M565.5,519 C565.5,517.8066406 565.0253906,516.6621094 564.1816406,515.8183594 C563.3378906,514.9746094 562.1933594,514.5 561,514.5 C559.8066406,514.5 558.6621094,514.9746094 557.8183594,515.8183594 C556.9746094,516.6621094 556.5,517.8066406 556.5,519 C556.5,520.1933594 556.9746094,521.3378906 557.8183594,522.1816406 C558.6621094,523.0253906 559.8066406,523.5 561,523.5 C562.1933594,523.5 563.3378906,523.0253906 564.1816406,522.1816406 C565.0253906,521.3378906 565.5,520.1933594 565.5,519 Z M565.5,519" style="fill:none;stroke:rgb(85,142,213)" clip-path="url(#clip97)" />
<clipPath id="clip98"><path d="M555,513 L568,513 L568,526 L555,526 L555,513 Z" /></clipPath>
<path d="M559,519 L563,519" style="fill:none;stroke:rgb(150,160,200)" clip-path="url(#clip98)" />
<clipPath id="clip99"><path d="M574,486 L650,486 L650,520 L574,520 L574,486 Z" /></clipPath>
<path d="M577,517 L646,517 Z M577,517" style="fill:none;stroke:rgb(85,142,213);stroke-width:3" clip-path="url(#clip99)" />
<text x="588" y="504" style="font:10px Open Sans">&lt;.*&gt;.crt</text>
<clipPath id="clip100"><path d="M574,519 L655,519 L655,553 L574,553 L574,519 Z" /></clipPath>
<path d="M577,550 L651,550 Z M577,550" style="fill:none;stroke:rgb(85,142,213);stroke-width:3" clip-path="url(#clip100)" />
<text x="588" y="537" style="font:10px Open Sans">&lt;.*&gt;.key</text>
<clipPath id="clip101"><path d="M463,553 L661,553 L661,618 L463,618 Z M465,571 L465,598 L560,598 L560,571 Z M465,571 Z M465,571" /></clipPath>
<path d="M573,599 C575.4453125,588.3339844 579.1113281,583 584,583" style="fill:none;stroke:rgb(85,142,213)" clip-path="url(#clip101)" />
<clipPath id="clip102"><path d="M463,553 L661,553 L661,618 L463,618 Z M465,571 L465,598 L560,598 L560,571 Z M465,571 Z M465,571" /></clipPath>
<path d="M573,599 C575.4453125,610.3339844 579.1113281,616 584,616" style="fill:none;stroke:rgb(85,142,213)" clip-path="url(#clip102)" />
<clipPath id="clip103"><path d="M462,552 L662,552 L662,619 L462,619 L462,552 Z" /></clipPath>
<path d="M560,599 L573,599" style="fill:none;stroke:rgb(85,142,213)" clip-path="url(#clip103)" />
<clipPath id="clip104"><path d="M462,568 L564,568 L564,602 L462,602 L462,568 Z" /></clipPath>
<path d="M465,599 L560,599 Z M465,599" style="fill:none;stroke:rgb(85,142,213);stroke-width:3" clip-path="url(#clip104)" />
<text x="476" y="586" style="font:10px Open Sans">ihm-recette</text>
<clipPath id="clip105"><path d="M562,579 L575,579 L575,592 L562,592 L562,579 Z" /></clipPath>
<path d="M572.5,585 C572.5,583.8066406 572.0253906,582.6621094 571.1816406,581.8183594 C570.3378906,580.9746094 569.1933594,580.5 568,580.5 C566.8066406,580.5 565.6621094,580.9746094 564.8183594,581.8183594 C563.9746094,582.6621094 563.5,583.8066406 563.5,585 C563.5,586.1933594 563.9746094,587.3378906 564.8183594,588.1816406 C565.6621094,589.0253906 566.8066406,589.5 568,589.5 C569.1933594,589.5 570.3378906,589.0253906 571.1816406,588.1816406 C572.0253906,587.3378906 572.5,586.1933594 572.5,585 Z M572.5,585" style="fill:rgb(250,250,250);stroke:none" clip-path="url(#clip105)" />
<clipPath id="clip106"><path d="M562,579 L575,579 L575,592 L562,592 L562,579 Z" /></clipPath>
<path d="M572.5,585 C572.5,583.8066406 572.0253906,582.6621094 571.1816406,581.8183594 C570.3378906,580.9746094 569.1933594,580.5 568,580.5 C566.8066406,580.5 565.6621094,580.9746094 564.8183594,581.8183594 C563.9746094,582.6621094 563.5,583.8066406 563.5,585 C563.5,586.1933594 563.9746094,587.3378906 564.8183594,588.1816406 C565.6621094,589.0253906 566.8066406,589.5 568,589.5 C569.1933594,589.5 570.3378906,589.0253906 571.1816406,588.1816406 C572.0253906,587.3378906 572.5,586.1933594 572.5,585 Z M572.5,585" style="fill:none;stroke:rgb(85,142,213)" clip-path="url(#clip106)" />
<clipPath id="clip107"><path d="M562,579 L575,579 L575,592 L562,592 L562,579 Z" /></clipPath>
<path d="M566,585 L570,585" style="fill:none;stroke:rgb(150,160,200)" clip-path="url(#clip107)" />
<clipPath id="clip108"><path d="M581,552 L657,552 L657,586 L581,586 L581,552 Z" /></clipPath>
<path d="M584,583 L653,583 Z M584,583" style="fill:none;stroke:rgb(85,142,213);stroke-width:3" clip-path="url(#clip108)" />
<text x="595" y="570" style="font:10px Open Sans">&lt;.*&gt;.crt</text>
<clipPath id="clip109"><path d="M581,585 L662,585 L662,619 L581,619 L581,585 Z" /></clipPath>
<path d="M584,616 L658,616 Z M584,616" style="fill:none;stroke:rgb(85,142,213);stroke-width:3" clip-path="url(#clip109)" />
<text x="595" y="603" style="font:10px Open Sans">&lt;.*&gt;.key</text>
<clipPath id="clip110"><path d="M660,481 L697,481 L697,624 L660,624 L660,481 Z" /></clipPath>
<path d="M666,487 L678.5,487 L678.5,618 L666,618 M678.5,552 L691,552" style="fill:none;stroke:rgb(195,214,155);stroke-width:5" clip-path="url(#clip110)" />
<clipPath id="clip111"><path d="M634,415 L671,415 L671,492 L634,492 L634,415 Z" /></clipPath>
<path d="M640,421 L652.5,421 L652.5,486 L640,486 M652.5,453 L665,453" style="fill:none;stroke:rgb(195,214,155);stroke-width:5" clip-path="url(#clip111)" />
<clipPath id="clip112"><path d="M695,513 L962,513 L962,592 L695,592 L695,513 Z" /></clipPath>
<path d="M701,514 C698.2382813,514 696,516.2382813 696,519 L696,585 C696,587.7617188 698.2382813,590 701,590 L955,590 C957.7617188,590 960,587.7617188 960,585 L960,519 C960,516.2382813 957.7617188,514 955,514 Z M701,514" style="fill:rgb(195,214,155);stroke:none" clip-path="url(#clip112)" />
<text x="706" y="530" style="font:10px Dialog">Ce sont 2 cas particuliers, car c'est </text>
<text x="706" y="546" style="font:10px Dialog">vitam qui les déploie ; par </text>
<text x="706" y="562" style="font:10px Dialog">conséquent, on a besoin de la clé </text>
<text x="706" y="578" style="font:10px Dialog">privée </text>
<clipPath id="clip113"><path d="M669,438 L1297,438 L1297,469 L669,469 L669,438 Z" /></clipPath>
<path d="M675,439 C672.2382813,439 670,441.2382813 670,444 L670,462 C670,464.7617188 672.2382813,467 675,467 L1290,467 C1292.7617188,467 1295,464.7617188 1295,462 L1295,444 C1295,441.2382813 1292.7617188,439 1290,439 Z M675,439" style="fill:rgb(195,214,155);stroke:none" clip-path="url(#clip113)" />
<text x="680" y="456" style="font:10px Dialog">Pour les clients externes, on a uniquement besoin des certificats (pour l'authentification)</text>
<clipPath id="clip114"><path d="M510,344 L547,344 L547,421 L510,421 L510,344 Z" /></clipPath>
<path d="M516,350 L528.5,350 L528.5,415 L516,415 M528.5,382 L541,382" style="fill:none;stroke:rgb(195,214,155);stroke-width:5" clip-path="url(#clip114)" />
<clipPath id="clip115"><path d="M545,359 L995,359 L995,406 L545,406 L545,359 Z" /></clipPath>
<path d="M551,360 C548.2382813,360 546,362.2382813 546,365 L546,399 C546,401.7617188 548.2382813,404 551,404 L988,404 C990.7617188,404 993,401.7617188 993,399 L993,365 C993,362.2382813 990.7617188,360 988,360 Z M551,360" style="fill:rgb(195,214,155);stroke:none" clip-path="url(#clip115)" />
<text x="556" y="377" style="font:10px Dialog">Clés publiques des CA des clients des API externes (root et/ou </text>
<text x="556" y="393" style="font:10px Dialog">intermediate)</text>
<clipPath id="clip116"><path d="M193,653 L1164,653 L1164,804 L193,804 Z M199,720 C196.2382813,720 194,722.2382813 194,725 L194,758 C194,760.7617188 196.2382813,763 199,763 L328,763 C330.7617188,763 333,760.7617188 333,758 L333,725 C333,722.2382813 330.7617188,720 328,720 Z M199,720 Z M199,720" /></clipPath>
<path d="M346,741.9101563 C348.2226563,716.6367188 351.5546875,704 356,704" style="fill:none;stroke:rgb(85,142,213)" clip-path="url(#clip116)" />
<clipPath id="clip117"><path d="M193,653 L1164,653 L1164,804 L193,804 Z M199,720 C196.2382813,720 194,722.2382813 194,725 L194,758 C194,760.7617188 196.2382813,763 199,763 L328,763 C330.7617188,763 333,760.7617188 333,758 L333,725 C333,722.2382813 330.7617188,720 328,720 Z M199,720 Z M199,720" /></clipPath>
<path d="M346,741.9101563 C348.2226563,767.3027344 351.5546875,780 356,780" style="fill:none;stroke:rgb(85,142,213)" clip-path="url(#clip117)" />
<clipPath id="clip118"><path d="M192,652 L1165,652 L1165,805 L192,805 L192,652 Z" /></clipPath>
<path d="M333,741.8457031 L346,741.9101563" style="fill:none;stroke:rgb(85,142,213)" clip-path="url(#clip118)" />
<clipPath id="clip119"><path d="M192,718 L336,718 L336,766 L192,766 L192,718 Z" /></clipPath>
<path d="M199,720 C196.2382813,720 194,722.2382813 194,725 L194,758 C194,760.7617188 196.2382813,763 199,763 L328,763 C330.7617188,763 333,760.7617188 333,758 L333,725 C333,722.2382813 330.7617188,720 328,720 Z M199,720" style="fill:rgb(220,230,242);stroke:none" clip-path="url(#clip119)" />
<clipPath id="clip120"><path d="M192,718 L336,718 L336,766 L192,766 L192,718 Z" /></clipPath>
<path d="M199,720 C196.2382813,720 194,722.2382813 194,725 L194,758 C194,760.7617188 196.2382813,763 199,763 L328,763 C330.7617188,763 333,760.7617188 333,758 L333,725 C333,722.2382813 330.7617188,720 328,720 Z M199,720" style="fill:none;stroke:rgb(85,142,213);stroke-width:2" clip-path="url(#clip120)" />
<text x="208" y="743" style="font:13px Open Sans">client-storage</text>
<clipPath id="clip121"><path d="M334,736 L347,736 L347,749 L334,749 L334,736 Z" /></clipPath>
<path d="M344.5,742 C344.5,740.8066406 344.0253906,739.6621094 343.1816406,738.8183594 C342.3378906,737.9746094 341.1933594,737.5 340,737.5 C338.8066406,737.5 337.6621094,737.9746094 336.8183594,738.8183594 C335.9746094,739.6621094 335.5,740.8066406 335.5,742 C335.5,743.1933594 335.9746094,744.3378906 336.8183594,745.1816406 C337.6621094,746.0253906 338.8066406,746.5 340,746.5 C341.1933594,746.5 342.3378906,746.0253906 343.1816406,745.1816406 C344.0253906,744.3378906 344.5,743.1933594 344.5,742 Z M344.5,742" style="fill:rgb(250,250,250);stroke:none" clip-path="url(#clip121)" />
<clipPath id="clip122"><path d="M334,736 L347,736 L347,749 L334,749 L334,736 Z" /></clipPath>
<path d="M344.5,742 C344.5,740.8066406 344.0253906,739.6621094 343.1816406,738.8183594 C342.3378906,737.9746094 341.1933594,737.5 340,737.5 C338.8066406,737.5 337.6621094,737.9746094 336.8183594,738.8183594 C335.9746094,739.6621094 335.5,740.8066406 335.5,742 C335.5,743.1933594 335.9746094,744.3378906 336.8183594,745.1816406 C337.6621094,746.0253906 338.8066406,746.5 340,746.5 C341.1933594,746.5 342.3378906,746.0253906 343.1816406,745.1816406 C344.0253906,744.3378906 344.5,743.1933594 344.5,742 Z M344.5,742" style="fill:none;stroke:rgb(85,142,213)" clip-path="url(#clip122)" />
<clipPath id="clip123"><path d="M334,736 L347,736 L347,749 L334,749 L334,736 Z" /></clipPath>
<path d="M338,742 L342,742" style="fill:none;stroke:rgb(150,160,200)" clip-path="url(#clip123)" />
<clipPath id="clip124"><path d="M354,653 L1039,653 L1039,728 L354,728 Z M356,676 L356,703 L393,703 L393,676 Z M356,676 Z M356,676" /></clipPath>
<path d="M406,704 C408.4453125,693.3339844 412.1113281,688 417,688" style="fill:none;stroke:rgb(85,142,213)" clip-path="url(#clip124)" />
<clipPath id="clip125"><path d="M354,653 L1039,653 L1039,728 L354,728 Z M356,676 L356,703 L393,703 L393,676 Z M356,676 Z M356,676" /></clipPath>
<path d="M406,704 C408.4453125,715.3339844 412.1113281,721 417,721" style="fill:none;stroke:rgb(85,142,213)" clip-path="url(#clip125)" />
<clipPath id="clip126"><path d="M353,652 L1040,652 L1040,729 L353,729 L353,652 Z" /></clipPath>
<path d="M393,704 L406,704" style="fill:none;stroke:rgb(85,142,213)" clip-path="url(#clip126)" />
<clipPath id="clip127"><path d="M353,673 L397,673 L397,707 L353,707 L353,673 Z" /></clipPath>
<path d="M356,704 L393,704 Z M356,704" style="fill:none;stroke:rgb(85,142,213);stroke-width:3" clip-path="url(#clip127)" />
<text x="367" y="691" style="font:10px Open Sans">ca</text>
<clipPath id="clip128"><path d="M395,684 L408,684 L408,697 L395,697 L395,684 Z" /></clipPath>
<path d="M405.5,690 C405.5,688.8066406 405.0253906,687.6621094 404.1816406,686.8183594 C403.3378906,685.9746094 402.1933594,685.5 401,685.5 C399.8066406,685.5 398.6621094,685.9746094 397.8183594,686.8183594 C396.9746094,687.6621094 396.5,688.8066406 396.5,690 C396.5,691.1933594 396.9746094,692.3378906 397.8183594,693.1816406 C398.6621094,694.0253906 399.8066406,694.5 401,694.5 C402.1933594,694.5 403.3378906,694.0253906 404.1816406,693.1816406 C405.0253906,692.3378906 405.5,691.1933594 405.5,690 Z M405.5,690" style="fill:rgb(250,250,250);stroke:none" clip-path="url(#clip128)" />
<clipPath id="clip129"><path d="M395,684 L408,684 L408,697 L395,697 L395,684 Z" /></clipPath>
<path d="M405.5,690 C405.5,688.8066406 405.0253906,687.6621094 404.1816406,686.8183594 C403.3378906,685.9746094 402.1933594,685.5 401,685.5 C399.8066406,685.5 398.6621094,685.9746094 397.8183594,686.8183594 C396.9746094,687.6621094 396.5,688.8066406 396.5,690 C396.5,691.1933594 396.9746094,692.3378906 397.8183594,693.1816406 C398.6621094,694.0253906 399.8066406,694.5 401,694.5 C402.1933594,694.5 403.3378906,694.0253906 404.1816406,693.1816406 C405.0253906,692.3378906 405.5,691.1933594 405.5,690 Z M405.5,690" style="fill:none;stroke:rgb(85,142,213)" clip-path="url(#clip129)" />
<clipPath id="clip130"><path d="M395,684 L408,684 L408,697 L395,697 L395,684 Z" /></clipPath>
<path d="M399,690 L403,690" style="fill:none;stroke:rgb(150,160,200)" clip-path="url(#clip130)" />
<clipPath id="clip131"><path d="M414,657 L490,657 L490,691 L414,691 L414,657 Z" /></clipPath>
<path d="M417,688 L486,688 Z M417,688" style="fill:none;stroke:rgb(85,142,213);stroke-width:3" clip-path="url(#clip131)" />
<text x="428" y="675" style="font:10px Open Sans">&lt;.*&gt;.crt</text>
<clipPath id="clip132"><path d="M414,690 L455,690 L455,724 L414,724 L414,690 Z" /></clipPath>
<path d="M417,721 L451,721 Z M417,721" style="fill:none;stroke:rgb(85,142,213);stroke-width:3" clip-path="url(#clip132)" />
<text x="428" y="708" style="font:10px Open Sans">...</text>
<clipPath id="clip133"><path d="M488,652 L525,652 L525,729 L488,729 L488,652 Z" /></clipPath>
<path d="M494,658 L506.5,658 L506.5,723 L494,723 M506.5,690 L519,690" style="fill:none;stroke:rgb(195,214,155);stroke-width:5" clip-path="url(#clip133)" />
<clipPath id="clip134"><path d="M523,659 L1040,659 L1040,722 L523,722 L523,659 Z" /></clipPath>
<path d="M529,660 C526.2382813,660 524,662.2382813 524,665 L524,715 C524,717.7617188 526.2382813,720 529,720 L1033,720 C1035.7617188,720 1038,717.7617188 1038,715 L1038,665 C1038,662.2382813 1035.7617188,660 1033,660 Z M529,660" style="fill:rgb(195,214,155);stroke:none" clip-path="url(#clip134)" />
<text x="534" y="676" style="font:10px Dialog">Clés publiques des CA du client storage-engine (root et/ou intermediate)</text>
<text x="534" y="692" style="font:10px Dialog">Utile uniqement en cas de communication https entre storage-engine et </text>
<text x="534" y="708" style="font:10px Dialog">offer</text>
<clipPath id="clip135"><path d="M354,729 L1164,729 L1164,804 L354,804 Z M356,752 L356,779 L419,779 L419,752 Z M356,752 Z M356,752" /></clipPath>
<path d="M432,780 C434.4453125,780 438.1113281,780 443,780" style="fill:none;stroke:rgb(85,142,213)" clip-path="url(#clip135)" />
<clipPath id="clip136"><path d="M353,728 L1165,728 L1165,805 L353,805 L353,728 Z" /></clipPath>
<path d="M419,780 L432,780" style="fill:none;stroke:rgb(85,142,213)" clip-path="url(#clip136)" />
<clipPath id="clip137"><path d="M353,749 L423,749 L423,783 L353,783 L353,749 Z" /></clipPath>
<path d="M356,780 L419,780 Z M356,780" style="fill:none;stroke:rgb(85,142,213);stroke-width:3" clip-path="url(#clip137)" />
<text x="367" y="767" style="font:10px Open Sans">clients</text>
<clipPath id="clip138"><path d="M421,760 L434,760 L434,773 L421,773 L421,760 Z" /></clipPath>
<path d="M431.5,766 C431.5,764.8066406 431.0253906,763.6621094 430.1816406,762.8183594 C429.3378906,761.9746094 428.1933594,761.5 427,761.5 C425.8066406,761.5 424.6621094,761.9746094 423.8183594,762.8183594 C422.9746094,763.6621094 422.5,764.8066406 422.5,766 C422.5,767.1933594 422.9746094,768.3378906 423.8183594,769.1816406 C424.6621094,770.0253906 425.8066406,770.5 427,770.5 C428.1933594,770.5 429.3378906,770.0253906 430.1816406,769.1816406 C431.0253906,768.3378906 431.5,767.1933594 431.5,766 Z M431.5,766" style="fill:rgb(250,250,250);stroke:none" clip-path="url(#clip138)" />
<clipPath id="clip139"><path d="M421,760 L434,760 L434,773 L421,773 L421,760 Z" /></clipPath>
<path d="M431.5,766 C431.5,764.8066406 431.0253906,763.6621094 430.1816406,762.8183594 C429.3378906,761.9746094 428.1933594,761.5 427,761.5 C425.8066406,761.5 424.6621094,761.9746094 423.8183594,762.8183594 C422.9746094,763.6621094 422.5,764.8066406 422.5,766 C422.5,767.1933594 422.9746094,768.3378906 423.8183594,769.1816406 C424.6621094,770.0253906 425.8066406,770.5 427,770.5 C428.1933594,770.5 429.3378906,770.0253906 430.1816406,769.1816406 C431.0253906,768.3378906 431.5,767.1933594 431.5,766 Z M431.5,766" style="fill:none;stroke:rgb(85,142,213)" clip-path="url(#clip139)" />
<clipPath id="clip140"><path d="M421,760 L434,760 L434,773 L421,773 L421,760 Z" /></clipPath>
<path d="M425,766 L429,766" style="fill:none;stroke:rgb(150,160,200)" clip-path="url(#clip140)" />
<clipPath id="clip141"><path d="M441,729 L1164,729 L1164,804 L441,804 Z M443,752 L443,779 L513,779 L513,752 Z M443,752 Z M443,752" /></clipPath>
<path d="M526,780 C528.4453125,769.3339844 532.1113281,764 537,764" style="fill:none;stroke:rgb(85,142,213)" clip-path="url(#clip141)" />
<clipPath id="clip142"><path d="M441,729 L1164,729 L1164,804 L441,804 Z M443,752 L443,779 L513,779 L513,752 Z M443,752 Z M443,752" /></clipPath>
<path d="M526,780 C528.4453125,791.3339844 532.1113281,797 537,797" style="fill:none;stroke:rgb(85,142,213)" clip-path="url(#clip142)" />
<clipPath id="clip143"><path d="M440,728 L1165,728 L1165,805 L440,805 L440,728 Z" /></clipPath>
<path d="M513,780 L526,780" style="fill:none;stroke:rgb(85,142,213)" clip-path="url(#clip143)" />
<clipPath id="clip144"><path d="M440,749 L517,749 L517,783 L440,783 L440,749 Z" /></clipPath>
<path d="M443,780 L513,780 Z M443,780" style="fill:none;stroke:rgb(85,142,213);stroke-width:3" clip-path="url(#clip144)" />
<text x="454" y="767" style="font:10px Open Sans">storage</text>
<clipPath id="clip145"><path d="M515,760 L528,760 L528,773 L515,773 L515,760 Z" /></clipPath>
<path d="M525.5,766 C525.5,764.8066406 525.0253906,763.6621094 524.1816406,762.8183594 C523.3378906,761.9746094 522.1933594,761.5 521,761.5 C519.8066406,761.5 518.6621094,761.9746094 517.8183594,762.8183594 C516.9746094,763.6621094 516.5,764.8066406 516.5,766 C516.5,767.1933594 516.9746094,768.3378906 517.8183594,769.1816406 C518.6621094,770.0253906 519.8066406,770.5 521,770.5 C522.1933594,770.5 523.3378906,770.0253906 524.1816406,769.1816406 C525.0253906,768.3378906 525.5,767.1933594 525.5,766 Z M525.5,766" style="fill:rgb(250,250,250);stroke:none" clip-path="url(#clip145)" />
<clipPath id="clip146"><path d="M515,760 L528,760 L528,773 L515,773 L515,760 Z" /></clipPath>
<path d="M525.5,766 C525.5,764.8066406 525.0253906,763.6621094 524.1816406,762.8183594 C523.3378906,761.9746094 522.1933594,761.5 521,761.5 C519.8066406,761.5 518.6621094,761.9746094 517.8183594,762.8183594 C516.9746094,763.6621094 516.5,764.8066406 516.5,766 C516.5,767.1933594 516.9746094,768.3378906 517.8183594,769.1816406 C518.6621094,770.0253906 519.8066406,770.5 521,770.5 C522.1933594,770.5 523.3378906,770.0253906 524.1816406,769.1816406 C525.0253906,768.3378906 525.5,767.1933594 525.5,766 Z M525.5,766" style="fill:none;stroke:rgb(85,142,213)" clip-path="url(#clip146)" />
<clipPath id="clip147"><path d="M515,760 L528,760 L528,773 L515,773 L515,760 Z" /></clipPath>
<path d="M519,766 L523,766" style="fill:none;stroke:rgb(150,160,200)" clip-path="url(#clip147)" />
<clipPath id="clip148"><path d="M534,733 L610,733 L610,767 L534,767 L534,733 Z" /></clipPath>
<path d="M537,764 L606,764 Z M537,764" style="fill:none;stroke:rgb(85,142,213);stroke-width:3" clip-path="url(#clip148)" />
<text x="548" y="751" style="font:10px Open Sans">&lt;.*&gt;.crt</text>
<clipPath id="clip149"><path d="M534,766 L615,766 L615,800 L534,800 L534,766 Z" /></clipPath>
<path d="M537,797 L611,797 Z M537,797" style="fill:none;stroke:rgb(85,142,213);stroke-width:3" clip-path="url(#clip149)" />
<text x="548" y="784" style="font:10px Open Sans">&lt;.*&gt;.key</text>
<clipPath id="clip150"><path d="M613,728 L650,728 L650,805 L613,805 L613,728 Z" /></clipPath>
<path d="M619,734 L631.5,734 L631.5,799 L619,799 M631.5,766 L644,766" style="fill:none;stroke:rgb(195,214,155);stroke-width:5" clip-path="url(#clip150)" />
<clipPath id="clip151"><path d="M648,735 L1165,735 L1165,798 L648,798 L648,735 Z" /></clipPath>
<path d="M654,736 C651.2382813,736 649,738.2382813 649,741 L649,791 C649,793.7617188 651.2382813,796 654,796 L1158,796 C1160.7617188,796 1163,793.7617188 1163,791 L1163,741 C1163,738.2382813 1160.7617188,736 1158,736 Z M654,736" style="fill:rgb(195,214,155);stroke:none" clip-path="url(#clip151)" />
<text x="659" y="752" style="font:10px Dialog">Certificat client de storage-engine</text>
<text x="659" y="768" style="font:10px Dialog">Utile uniqement en cas de communication https entre storage-engine et </text>
<text x="659" y="784" style="font:10px Dialog">offer</text>
<clipPath id="clip152"><path d="M150,834 L1039,834 L1039,980 L150,980 Z M156,898 C153.2382813,898 151,900.2382813 151,903 L151,936 C151,938.7617188 153.2382813,941 156,941 L286,941 C288.7617188,941 291,938.7617188 291,936 L291,903 C291,900.2382813 288.7617188,898 286,898 Z M156,898 Z M156,898" /></clipPath>
<path d="M304,919.9140625 C306.2226563,896.6386719 309.5546875,885 314,885" style="fill:none;stroke:rgb(85,142,213)" clip-path="url(#clip152)" />
<clipPath id="clip153"><path d="M150,834 L1039,834 L1039,980 L150,980 Z M156,898 C153.2382813,898 151,900.2382813 151,903 L151,936 C151,938.7617188 153.2382813,941 156,941 L286,941 C288.7617188,941 291,938.7617188 291,936 L291,903 C291,900.2382813 288.7617188,898 286,898 Z M156,898 Z M156,898" /></clipPath>
<path d="M304,919.9140625 C306.2226563,943.9707031 309.5546875,956 314,956" style="fill:none;stroke:rgb(85,142,213)" clip-path="url(#clip153)" />
<clipPath id="clip154"><path d="M149,833 L1040,833 L1040,981 L149,981 L149,833 Z" /></clipPath>
<path d="M291,919.8496094 L304,919.9140625" style="fill:none;stroke:rgb(85,142,213)" clip-path="url(#clip154)" />
<clipPath id="clip155"><path d="M149,896 L294,896 L294,944 L149,944 L149,896 Z" /></clipPath>
<path d="M156,898 C153.2382813,898 151,900.2382813 151,903 L151,936 C151,938.7617188 153.2382813,941 156,941 L286,941 C288.7617188,941 291,938.7617188 291,936 L291,903 C291,900.2382813 288.7617188,898 286,898 Z M156,898" style="fill:rgb(220,230,242);stroke:none" clip-path="url(#clip155)" />
<clipPath id="clip156"><path d="M149,896 L294,896 L294,944 L149,944 L149,896 Z" /></clipPath>
<path d="M156,898 C153.2382813,898 151,900.2382813 151,903 L151,936 C151,938.7617188 153.2382813,941 156,941 L286,941 C288.7617188,941 291,938.7617188 291,936 L291,903 C291,900.2382813 288.7617188,898 286,898 Z M156,898" style="fill:none;stroke:rgb(85,142,213);stroke-width:2" clip-path="url(#clip156)" />
<text x="165" y="921" style="font:13px Open Sans">timestamping</text>
<clipPath id="clip157"><path d="M292,914 L305,914 L305,927 L292,927 L292,914 Z" /></clipPath>
<path d="M302.5,920 C302.5,918.8066406 302.0253906,917.6621094 301.1816406,916.8183594 C300.3378906,915.9746094 299.1933594,915.5 298,915.5 C296.8066406,915.5 295.6621094,915.9746094 294.8183594,916.8183594 C293.9746094,917.6621094 293.5,918.8066406 293.5,920 C293.5,921.1933594 293.9746094,922.3378906 294.8183594,923.1816406 C295.6621094,924.0253906 296.8066406,924.5 298,924.5 C299.1933594,924.5 300.3378906,924.0253906 301.1816406,923.1816406 C302.0253906,922.3378906 302.5,921.1933594 302.5,920 Z M302.5,920" style="fill:rgb(250,250,250);stroke:none" clip-path="url(#clip157)" />
<clipPath id="clip158"><path d="M292,914 L305,914 L305,927 L292,927 L292,914 Z" /></clipPath>
<path d="M302.5,920 C302.5,918.8066406 302.0253906,917.6621094 301.1816406,916.8183594 C300.3378906,915.9746094 299.1933594,915.5 298,915.5 C296.8066406,915.5 295.6621094,915.9746094 294.8183594,916.8183594 C293.9746094,917.6621094 293.5,918.8066406 293.5,920 C293.5,921.1933594 293.9746094,922.3378906 294.8183594,923.1816406 C295.6621094,924.0253906 296.8066406,924.5 298,924.5 C299.1933594,924.5 300.3378906,924.0253906 301.1816406,923.1816406 C302.0253906,922.3378906 302.5,921.1933594 302.5,920 Z M302.5,920" style="fill:none;stroke:rgb(85,142,213)" clip-path="url(#clip158)" />
<clipPath id="clip159"><path d="M292,914 L305,914 L305,927 L292,927 L292,914 Z" /></clipPath>
<path d="M296,920 L300,920" style="fill:none;stroke:rgb(150,160,200)" clip-path="url(#clip159)" />
<clipPath id="clip160"><path d="M312,839 L447,839 L447,904 L312,904 Z M314,857 L314,884 L351,884 L351,857 Z M314,857 Z M314,857" /></clipPath>
<path d="M364,885 C366.4453125,874.3339844 370.1113281,869 375,869" style="fill:none;stroke:rgb(85,142,213)" clip-path="url(#clip160)" />
<clipPath id="clip161"><path d="M312,839 L447,839 L447,904 L312,904 Z M314,857 L314,884 L351,884 L351,857 Z M314,857 Z M314,857" /></clipPath>
<path d="M364,885 C366.4453125,896.3339844 370.1113281,902 375,902" style="fill:none;stroke:rgb(85,142,213)" clip-path="url(#clip161)" />
<clipPath id="clip162"><path d="M311,838 L448,838 L448,905 L311,905 L311,838 Z" /></clipPath>
<path d="M351,885 L364,885" style="fill:none;stroke:rgb(85,142,213)" clip-path="url(#clip162)" />
<clipPath id="clip163"><path d="M311,854 L355,854 L355,888 L311,888 L311,854 Z" /></clipPath>
<path d="M314,885 L351,885 Z M314,885" style="fill:none;stroke:rgb(85,142,213);stroke-width:3" clip-path="url(#clip163)" />
<text x="325" y="872" style="font:10px Open Sans">ca</text>
<clipPath id="clip164"><path d="M353,865 L366,865 L366,878 L353,878 L353,865 Z" /></clipPath>
<path d="M363.5,871 C363.5,869.8066406 363.0253906,868.6621094 362.1816406,867.8183594 C361.3378906,866.9746094 360.1933594,866.5 359,866.5 C357.8066406,866.5 356.6621094,866.9746094 355.8183594,867.8183594 C354.9746094,868.6621094 354.5,869.8066406 354.5,871 C354.5,872.1933594 354.9746094,873.3378906 355.8183594,874.1816406 C356.6621094,875.0253906 357.8066406,875.5 359,875.5 C360.1933594,875.5 361.3378906,875.0253906 362.1816406,874.1816406 C363.0253906,873.3378906 363.5,872.1933594 363.5,871 Z M363.5,871" style="fill:rgb(250,250,250);stroke:none" clip-path="url(#clip164)" />
<clipPath id="clip165"><path d="M353,865 L366,865 L366,878 L353,878 L353,865 Z" /></clipPath>
<path d="M363.5,871 C363.5,869.8066406 363.0253906,868.6621094 362.1816406,867.8183594 C361.3378906,866.9746094 360.1933594,866.5 359,866.5 C357.8066406,866.5 356.6621094,866.9746094 355.8183594,867.8183594 C354.9746094,868.6621094 354.5,869.8066406 354.5,871 C354.5,872.1933594 354.9746094,873.3378906 355.8183594,874.1816406 C356.6621094,875.0253906 357.8066406,875.5 359,875.5 C360.1933594,875.5 361.3378906,875.0253906 362.1816406,874.1816406 C363.0253906,873.3378906 363.5,872.1933594 363.5,871 Z M363.5,871" style="fill:none;stroke:rgb(85,142,213)" clip-path="url(#clip165)" />
<clipPath id="clip166"><path d="M353,865 L366,865 L366,878 L353,878 L353,865 Z" /></clipPath>
<path d="M357,871 L361,871" style="fill:none;stroke:rgb(150,160,200)" clip-path="url(#clip166)" />
<clipPath id="clip167"><path d="M372,838 L448,838 L448,872 L372,872 L372,838 Z" /></clipPath>
<path d="M375,869 L444,869 Z M375,869" style="fill:none;stroke:rgb(85,142,213);stroke-width:3" clip-path="url(#clip167)" />
<text x="386" y="856" style="font:10px Open Sans">&lt;.*&gt;.crt</text>
<clipPath id="clip168"><path d="M372,871 L413,871 L413,905 L372,905 L372,871 Z" /></clipPath>
<path d="M375,902 L409,902 Z M375,902" style="fill:none;stroke:rgb(85,142,213);stroke-width:3" clip-path="url(#clip168)" />
<text x="386" y="889" style="font:10px Open Sans">...</text>
<clipPath id="clip169"><path d="M312,905 L1039,905 L1039,980 L312,980 Z M314,928 L314,955 L372,955 L372,928 Z M314,928 Z M314,928" /></clipPath>
<path d="M385,956 C387.4453125,945.3339844 391.1113281,940 396,940" style="fill:none;stroke:rgb(85,142,213)" clip-path="url(#clip169)" />
<clipPath id="clip170"><path d="M312,905 L1039,905 L1039,980 L312,980 Z M314,928 L314,955 L372,955 L372,928 Z M314,928 Z M314,928" /></clipPath>
<path d="M385,956 C387.4453125,967.3339844 391.1113281,973 396,973" style="fill:none;stroke:rgb(85,142,213)" clip-path="url(#clip170)" />
<clipPath id="clip171"><path d="M311,904 L1040,904 L1040,981 L311,981 L311,904 Z" /></clipPath>
<path d="M372,956 L385,956" style="fill:none;stroke:rgb(85,142,213)" clip-path="url(#clip171)" />
<clipPath id="clip172"><path d="M311,925 L376,925 L376,959 L311,959 L311,925 Z" /></clipPath>
<path d="M314,956 L372,956 Z M314,956" style="fill:none;stroke:rgb(85,142,213);stroke-width:3" clip-path="url(#clip172)" />
<text x="325" y="943" style="font:10px Open Sans">vitam</text>
<clipPath id="clip173"><path d="M374,936 L387,936 L387,949 L374,949 L374,936 Z" /></clipPath>
<path d="M384.5,942 C384.5,940.8066406 384.0253906,939.6621094 383.1816406,938.8183594 C382.3378906,937.9746094 381.1933594,937.5 380,937.5 C378.8066406,937.5 377.6621094,937.9746094 376.8183594,938.8183594 C375.9746094,939.6621094 375.5,940.8066406 375.5,942 C375.5,943.1933594 375.9746094,944.3378906 376.8183594,945.1816406 C377.6621094,946.0253906 378.8066406,946.5 380,946.5 C381.1933594,946.5 382.3378906,946.0253906 383.1816406,945.1816406 C384.0253906,944.3378906 384.5,943.1933594 384.5,942 Z M384.5,942" style="fill:rgb(250,250,250);stroke:none" clip-path="url(#clip173)" />
<clipPath id="clip174"><path d="M374,936 L387,936 L387,949 L374,949 L374,936 Z" /></clipPath>
<path d="M384.5,942 C384.5,940.8066406 384.0253906,939.6621094 383.1816406,938.8183594 C382.3378906,937.9746094 381.1933594,937.5 380,937.5 C378.8066406,937.5 377.6621094,937.9746094 376.8183594,938.8183594 C375.9746094,939.6621094 375.5,940.8066406 375.5,942 C375.5,943.1933594 375.9746094,944.3378906 376.8183594,945.1816406 C377.6621094,946.0253906 378.8066406,946.5 380,946.5 C381.1933594,946.5 382.3378906,946.0253906 383.1816406,945.1816406 C384.0253906,944.3378906 384.5,943.1933594 384.5,942 Z M384.5,942" style="fill:none;stroke:rgb(85,142,213)" clip-path="url(#clip174)" />
<clipPath id="clip175"><path d="M374,936 L387,936 L387,949 L374,949 L374,936 Z" /></clipPath>
<path d="M378,942 L382,942" style="fill:none;stroke:rgb(150,160,200)" clip-path="url(#clip175)" />
<clipPath id="clip176"><path d="M393,909 L495,909 L495,943 L393,943 L393,909 Z" /></clipPath>
<path d="M396,940 L491,940 Z M396,940" style="fill:none;stroke:rgb(85,142,213);stroke-width:3" clip-path="url(#clip176)" />
<text x="407" y="927" style="font:10px Open Sans">&lt;usage&gt;.crt</text>
<clipPath id="clip177"><path d="M393,942 L500,942 L500,976 L393,976 L393,942 Z" /></clipPath>
<path d="M396,973 L496,973 Z M396,973" style="fill:none;stroke:rgb(85,142,213);stroke-width:3" clip-path="url(#clip177)" />
<text x="407" y="960" style="font:10px Open Sans">&lt;usage&gt;.key</text>
<clipPath id="clip178"><path d="M498,904 L535,904 L535,981 L498,981 L498,904 Z" /></clipPath>
<path d="M504,910 L516.5,910 L516.5,975 L504,975 M516.5,942 L529,942" style="fill:none;stroke:rgb(195,214,155);stroke-width:5" clip-path="url(#clip178)" />
<clipPath id="clip179"><path d="M533,919 L1040,919 L1040,966 L533,966 L533,919 Z" /></clipPath>
<path d="M539,920 C536.2382813,920 534,922.2382813 534,925 L534,959 C534,961.7617188 536.2382813,964 539,964 L1033,964 C1035.7617188,964 1038,961.7617188 1038,959 L1038,925 C1038,922.2382813 1035.7617188,920 1033,920 Z M539,920" style="fill:rgb(195,214,155);stroke:none" clip-path="url(#clip179)" />
<text x="544" y="936" style="font:10px Dialog">Les certificats de timestamping sont rangés par usage ; ils ne sont pas </text>
<text x="544" y="952" style="font:10px Dialog">accolés à un host particulier</text>
<clipPath id="clip180"><path d="M446,833 L483,833 L483,910 L446,910 L446,833 Z" /></clipPath>
<path d="M452,839 L464.5,839 L464.5,904 L452,904 M464.5,871 L477,871" style="fill:none;stroke:rgb(195,214,155);stroke-width:5" clip-path="url(#clip180)" />
<clipPath id="clip181"><path d="M481,856 L829,856 L829,887 L481,887 L481,856 Z" /></clipPath>
<path d="M487,857 C484.2382813,857 482,859.2382813 482,862 L482,880 C482,882.7617188 484.2382813,885 487,885 L822,885 C824.7617188,885 827,882.7617188 827,880 L827,862 C827,859.2382813 824.7617188,857 822,857 Z M487,857" style="fill:rgb(195,214,155);stroke:none" clip-path="url(#clip181)" />
<text x="492" y="873" style="font:10px Dialog">Clés publiques des CA (root et/ou intermediate)</text>
</svg>
